<svg width="80" height="80" viewBox="0 0 80 80" fill="none" xmlns="http://www.w3.org/2000/svg">
<path d="M22.4787 41.3636H15.0814C14.4237 41.3636 13.8222 40.9965 13.521 40.4126C13.2198 39.8286 13.2698 39.1252 13.6501 38.5896L20.3976 29.1041C20.7813 28.5658 20.8349 27.8852 20.5416 27.2837C20.4099 27.0124 20.0068 26.3784 19.1261 26.338L19.0251 26.3362C17.8194 26.3362 16.8385 27.3171 16.8385 28.5228C16.8385 29.4922 16.0517 30.279 15.0823 30.279C14.1128 30.279 13.326 29.4922 13.326 28.5228C13.326 25.38 15.8823 22.8237 19.0251 22.8237C19.1111 22.8237 19.1954 22.8255 19.2806 22.829C21.2011 22.9159 22.8511 24.0057 23.6993 25.7444C24.552 27.4936 24.3843 29.5607 23.2603 31.1405L18.4859 37.852H22.4787C23.4482 37.852 24.235 38.6388 24.235 39.6082C24.235 40.5777 23.4491 41.3636 22.4787 41.3636Z" fill="#CAB57B"/>
<path d="M35.8508 41.3636C34.8814 41.3636 34.0946 40.5768 34.0946 39.6073V38.5703H27.0731C26.4145 38.5703 25.8112 38.2023 25.5109 37.6166C25.2106 37.0309 25.2624 36.3258 25.6461 35.7901L34.4239 23.5552C34.8673 22.9352 35.6603 22.6727 36.3882 22.9071C37.1144 23.1407 37.6071 23.816 37.6071 24.5791V35.0578H38.6608C39.6303 35.0578 40.4171 35.8446 40.4171 36.814C40.4171 37.7835 39.6303 38.5703 38.6608 38.5703H37.6071V39.6073C37.6071 40.5768 36.8211 41.3636 35.8508 41.3636ZM30.4951 35.0578H34.0954V30.0402L30.4951 35.0578Z" fill="#CAB57B"/>
<path d="M52.0865 57.0876C51.7844 57.0876 51.4788 57.0095 51.1996 56.847C50.3627 56.3553 50.0826 55.2795 50.5726 54.4436L57.8364 42.0594H52.0874C51.1179 42.0594 50.3311 41.2735 50.3311 40.3031C50.3311 39.3337 51.1179 38.5469 52.0874 38.5469H60.9029C61.5325 38.5469 62.1138 38.8841 62.4264 39.4303C62.739 39.9765 62.7364 40.6491 62.4176 41.1918L53.6013 56.2191C53.2763 56.7768 52.6898 57.0876 52.0865 57.0876Z" fill="#CAB57B"/>
<path d="M35.8719 57.0873C35.5795 57.0873 35.2827 57.0144 35.0096 56.8599C34.1657 56.383 33.8671 55.3108 34.3448 54.467L51.7168 23.715C52.1936 22.872 53.2658 22.5726 54.1097 23.0503C54.9544 23.5271 55.2521 24.5984 54.7753 25.4432L37.4025 56.1942C37.0802 56.7668 36.4848 57.0873 35.8719 57.0873Z" fill="#CAB57B"/>
<path d="M37.5535 77.0692C17.0888 77.0692 0.439575 60.42 0.439575 39.9553C0.439575 19.4906 17.0888 2.84131 37.5535 2.84131C58.0182 2.84131 74.6675 19.4906 74.6675 39.9553C74.6675 40.9247 73.8807 41.7115 72.9112 41.7115C71.9418 41.7115 71.155 40.9247 71.155 39.9553C71.155 21.4268 56.0811 6.35381 37.5535 6.35381C19.026 6.35381 3.95208 21.4268 3.95208 39.9553C3.95208 58.4837 19.026 73.5567 37.5535 73.5567C49.4486 73.5567 60.5727 67.1701 66.5835 56.8881C67.0735 56.0513 68.1474 55.7694 68.986 56.2585C69.8229 56.7485 70.1047 57.8234 69.6156 58.6611C62.9779 70.0152 50.6929 77.0692 37.5535 77.0692Z" fill="#CAB57B"/>
<path d="M72.9112 41.7116C72.4616 41.7116 72.0129 41.5404 71.6696 41.197L66.8662 36.3937C66.1804 35.7079 66.1804 34.5962 66.8662 33.9104C67.552 33.2245 68.6637 33.2245 69.3496 33.9104L72.9112 37.4712L76.4729 33.9104C77.1587 33.2245 78.2704 33.2245 78.9563 33.9104C79.6421 34.5962 79.6421 35.7079 78.9563 36.3937L74.1529 41.197C73.8104 41.5404 73.3608 41.7116 72.9112 41.7116Z" fill="#CAB57B"/>
</svg>
