<svg width="80" height="80" viewBox="0 0 80 80" fill="none" xmlns="http://www.w3.org/2000/svg">
<path d="M23.3048 22.9998H38.0346V21.4275C38.0346 13.8561 44.2208 7.66895 51.7922 7.66895H69.4806C70.5662 7.66895 71.4459 8.54958 71.4459 9.63526V68.3998H77.3723C79.9584 68.3998 79.9584 72.3315 77.3723 72.3315C52.4574 72.3315 27.5426 72.3315 2.62776 72.3315C0.0425386 72.3315 0.0425386 68.3998 2.62776 68.3998H8.5541V37.7495C8.5541 29.6329 15.1882 22.9998 23.3048 22.9998ZM55.8212 68.3998V60.4533H53.6584V68.3998H55.8212ZM49.7267 68.3998V58.487C49.7267 57.4013 50.6073 56.5216 51.693 56.5216H57.7876C58.8732 56.5216 59.7529 57.4013 59.7529 58.487V68.3998H67.5142V11.6006H51.7922C46.3922 11.6006 41.9654 16.0274 41.9654 21.4275V68.3998H49.7267ZM17.0524 45.7092H22.5574C23.6421 45.7092 24.5227 46.5889 24.5227 47.6746V53.5726C24.5227 54.6583 23.6421 55.538 22.5574 55.538H17.0524C15.9668 55.538 15.0871 54.6583 15.0871 53.5726V47.6746C15.0871 46.5889 15.9668 45.7092 17.0524 45.7092ZM20.591 49.6409H19.0187V51.6063H20.591V49.6409ZM27.9631 45.7092H33.468C34.5527 45.7092 35.4334 46.5889 35.4334 47.6746V53.5726C35.4334 54.6583 34.5527 55.538 33.468 55.538H27.9631C26.8774 55.538 25.9977 54.6583 25.9977 53.5726V47.6746C25.9977 46.5889 26.8774 45.7092 27.9631 45.7092ZM31.5017 49.6409H29.9294V51.6063H31.5017V49.6409ZM17.0524 33.6184H22.5574C23.6421 33.6184 24.5227 34.4991 24.5227 35.5848V41.4828C24.5227 42.5675 23.6421 43.4481 22.5574 43.4481H17.0524C15.9668 43.4481 15.0871 42.5675 15.0871 41.4828V35.5848C15.0871 34.4991 15.9668 33.6184 17.0524 33.6184ZM20.591 37.5501H19.0187V39.5164H20.591V37.5501ZM27.9631 33.6184H33.468C34.5527 33.6184 35.4334 34.4991 35.4334 35.5848V41.4828C35.4334 42.5675 34.5527 43.4481 33.468 43.4481H27.9631C26.8774 43.4481 25.9977 42.5675 25.9977 41.4828V35.5848C25.9977 34.4991 26.8774 33.6184 27.9631 33.6184ZM31.5017 37.5501H29.9294V39.5164H31.5017V37.5501ZM46.3846 25.7551C43.7994 25.7551 43.7994 21.8234 46.3846 21.8234H63.095C65.6812 21.8234 65.6812 25.7551 63.095 25.7551H46.3846ZM46.3846 47.3798C43.7994 47.3798 43.7994 43.4481 46.3846 43.4481H63.095C65.6812 43.4481 65.6812 47.3798 63.095 47.3798H46.3846ZM46.3846 36.5674C43.7994 36.5674 43.7994 32.6358 46.3846 32.6358H63.095C65.6812 32.6358 65.6812 36.5674 63.095 36.5674H46.3846ZM38.0346 26.9315H23.3048C17.3586 26.9315 12.4858 31.8043 12.4858 37.7495V68.3998H38.0346V26.9315Z" fill="#CAB57B"/>
</svg>
