<svg width="80" height="80" viewBox="0 0 80 80" fill="none" xmlns="http://www.w3.org/2000/svg">
<path d="M20.9687 56.9375C21.0156 56.9844 21.0469 57.0156 21.0938 57.0469C25.6719 61.5781 31.9688 64.375 38.9062 64.375C41.9531 64.375 44.9375 63.8437 47.75 62.7812C49.7188 64.9844 52.5625 66.3594 55.7344 66.3594C61.6406 66.3594 66.4531 61.5469 66.4531 55.6406C66.4531 52.4219 65.0313 49.5312 62.7656 47.5625C63.75 44.8281 64.25 41.9531 64.25 39C64.25 32.0625 61.4531 25.7813 56.9219 21.1875C56.8906 21.1406 56.8594 21.0938 56.8125 21.0625C56.7656 21.0156 56.7344 20.9844 56.6875 20.9531C52.1094 16.4219 45.8125 13.625 38.875 13.625C31.9375 13.625 25.6562 16.4219 21.0625 20.9531C21.0156 20.9844 20.9688 21.0156 20.9375 21.0625C20.8906 21.1094 20.8594 21.1406 20.8281 21.1875C16.2969 25.7656 13.5 32.0625 13.5 39C13.5 45.9375 16.2969 52.2188 20.8281 56.8125C20.8906 56.8594 20.9219 56.9062 20.9687 56.9375ZM64.125 55.6406C64.125 60.2656 60.3594 64.0156 55.75 64.0156C51.1406 64.0156 47.375 60.25 47.375 55.6406C47.375 51.0313 51.1406 47.2656 55.75 47.2656C60.3594 47.2656 64.125 51.0156 64.125 55.6406ZM55.7344 44.9219C49.8281 44.9219 45.0156 49.7344 45.0156 55.6406C45.0156 57.5156 45.5 59.2656 46.3438 60.7969C44.3281 61.4844 42.2188 61.8906 40.0781 62V57.8125C40.0781 57.1719 39.5469 56.6406 38.9062 56.6406C38.2656 56.6406 37.7344 57.1719 37.7344 57.8125V62C32.2656 61.7187 27.2969 59.5312 23.4844 56.0938L26.4375 53.1406C26.8906 52.6875 26.8906 51.9375 26.4375 51.4844C25.9844 51.0312 25.2344 51.0312 24.7813 51.4844L21.8281 54.4375C18.375 50.625 16.1875 45.6562 15.9219 40.1875H20.1094C20.75 40.1875 21.2812 39.6562 21.2812 39.0156C21.2812 38.375 20.75 37.8438 20.1094 37.8438H15.9219C16.2031 32.375 18.3906 27.4062 21.8281 23.5938L24.7813 26.5469C25.0156 26.7812 25.3125 26.8906 25.6094 26.8906C25.9062 26.8906 26.2031 26.7812 26.4375 26.5469C26.8906 26.0938 26.8906 25.3438 26.4375 24.8906L23.4844 21.9375C27.2969 18.4844 32.2656 16.2969 37.7344 16.0313V20.2187C37.7344 20.8594 38.2656 21.3906 38.9062 21.3906C39.5469 21.3906 40.0781 20.8594 40.0781 20.2187V16.0313C45.5469 16.3125 50.5156 18.5 54.3281 21.9375L51.375 24.8906C50.9219 25.3438 50.9219 26.0938 51.375 26.5469C51.6094 26.7812 51.9062 26.8906 52.2031 26.8906C52.5 26.8906 52.7969 26.7812 53.0312 26.5469L55.9844 23.5938C59.4375 27.4062 61.625 32.375 61.8906 37.8438H57.7031C57.0625 37.8438 56.5312 38.375 56.5312 39.0156C56.5312 39.6562 57.0625 40.1875 57.7031 40.1875H61.8906C61.7812 42.2344 61.4219 44.25 60.7812 46.1875C59.2812 45.375 57.5625 44.9219 55.7344 44.9219Z" fill="white"/>
<path d="M38.9063 25.8438C38.2656 25.8438 37.7344 26.375 37.7344 27.0156V39.5469L31.6719 45.6094C31.2188 46.0625 31.2188 46.8125 31.6719 47.2656C31.9062 47.5 32.2031 47.6094 32.5 47.6094C32.7969 47.6094 33.0938 47.5 33.3281 47.2656L39.7344 40.8594C39.9531 40.6406 40.0781 40.3438 40.0781 40.0313V27.0156C40.0781 26.375 39.5469 25.8438 38.9063 25.8438Z" fill="white"/>
<path d="M56.16 61C54.4229 61 53.0362 60.4335 52 59.3006L53.6152 57.882C54.3771 58.6685 55.2356 59.0618 56.1905 59.0618C56.6375 59.0618 56.9981 58.9541 57.2724 58.7388C57.5568 58.514 57.699 58.2144 57.699 57.8399C57.699 57.4373 57.5162 57.1283 57.1505 56.9129C56.7848 56.6976 56.2717 56.5899 55.6114 56.5899H54.6362L54.2705 55.2135L56.8152 52.8539H52.6248V51H59.8324V52.6292L57.1352 55.0028C59.0451 55.3024 60 56.2294 60 57.7837C60 58.7294 59.6495 59.5019 58.9486 60.1011C58.2578 60.7004 57.3283 61 56.16 61Z" fill="white"/>
</svg>
