<svg width="80" height="80" viewBox="0 0 80 80" fill="none" xmlns="http://www.w3.org/2000/svg">
<g clip-path="url(#clip0_405_1525)">
<path d="M39.4964 40.9666C49.2609 40.9666 57.4616 48.3604 58.4537 58.0606H62.1643L74.3099 30.6003H17.8348L5.68918 58.0606H20.5391C21.5321 48.3604 29.7319 40.9666 39.4964 40.9666ZM32.1007 10.1746V4.84542H11.2801V10.1746H32.1007ZM7.35313 10.1746V2.88194C7.35313 1.79815 8.23187 0.918457 9.31661 0.918457H34.0642C35.148 0.918457 36.0277 1.79815 36.0277 2.88194V10.1746H63.4399C64.5237 10.1746 65.4033 11.0533 65.4033 12.1381V26.6733H77.3222C78.8 26.6733 79.7279 28.238 79.074 29.525L65.2342 60.814C64.9111 61.5473 64.1929 61.9848 63.4399 61.9848L58.4537 61.9876C57.4616 71.6869 49.2609 79.0816 39.4964 79.0816C29.7319 79.0816 21.5321 71.6869 20.5391 61.9876H2.67687C1.57985 61.9876 0.71339 61.1022 0.71339 60.009V12.1381C0.71339 11.0533 1.59214 10.1746 2.67687 10.1746H7.35313ZM4.64035 50.7368L14.7648 27.8469C15.088 27.1127 15.8061 26.6752 16.5592 26.6752L61.4764 26.6733V14.1016C42.5304 14.1016 23.5854 14.1016 4.64035 14.1016V50.7368ZM41.4599 45.6136V49.8439H44.4344C43.7852 48.3292 42.7921 46.5944 41.4599 45.6136ZM41.4599 53.7708V58.0606H46.2438C46.1512 56.5498 45.9519 55.1107 45.6618 53.7708H41.4599ZM41.4599 61.9876V66.2774H45.6618C45.9519 64.9375 46.1512 63.4975 46.2438 61.9876H41.4599ZM41.4599 70.2044V74.4346C42.7921 73.4538 43.7852 71.719 44.4344 70.2044H41.4599ZM37.5329 74.4346V70.2044H34.5584C35.2075 71.719 36.2015 73.4538 37.5329 74.4346ZM37.5329 66.2774V61.9876H32.7489C32.8425 63.4975 33.0418 64.9375 33.331 66.2774H37.5329ZM37.5329 58.0606V53.7708H33.331C33.0418 55.1107 32.8425 56.5498 32.7489 58.0606H37.5329ZM37.5329 49.8439V45.6136C36.2015 46.5944 35.2075 48.3292 34.5584 49.8439H37.5329ZM47.5109 47.1878C47.922 48.0061 48.2952 48.8952 48.6231 49.8439H50.6905C49.7579 48.8187 48.6864 47.9229 47.5109 47.1878ZM49.6577 53.7708C49.9157 55.1362 50.0924 56.5734 50.1765 58.0606H54.5012C54.3047 56.5488 53.8861 55.1079 53.2785 53.7708H49.6577ZM50.1765 61.9876C50.0924 63.4749 49.9157 64.912 49.6577 66.2774H53.2785C53.8861 64.9404 54.3047 63.4985 54.5012 61.9876H50.1765ZM48.6231 70.2044C48.2952 71.153 47.922 72.0422 47.5109 72.8595C48.6864 72.1253 49.7579 71.2296 50.6905 70.2044H48.6231ZM31.4818 72.8595C31.0708 72.0422 30.6985 71.153 30.3706 70.2044H28.3032C29.2349 71.2296 30.3073 72.1253 31.4818 72.8595ZM29.336 66.2774C29.0771 64.912 28.9004 63.4749 28.8172 61.9876H24.4925C24.6881 63.4985 25.1076 64.9404 25.7152 66.2774H29.336ZM28.8172 58.0606C28.9004 56.5734 29.0771 55.1362 29.336 53.7708H25.7152C25.1076 55.1079 24.6881 56.5488 24.4925 58.0606H28.8172ZM30.3706 49.8439C30.6985 48.8952 31.0708 48.0061 31.4818 47.1878C30.3073 47.9229 29.2349 48.8187 28.3032 49.8439H30.3706Z" fill="#CAB57B"/>
</g>
<defs>
<clipPath id="clip0_405_1525">
<rect width="80" height="80" fill="white"/>
</clipPath>
</defs>
</svg>
