<svg width="80" height="80" viewBox="0 0 80 80" fill="none" xmlns="http://www.w3.org/2000/svg">
<path d="M24.1875 66.3594H55.8125C57.8125 66.3594 59.4375 64.7344 59.4375 62.7344V21.7656C59.4375 19.7656 57.8125 18.1406 55.8125 18.1406H51.1563V14.8125C51.1563 14.1719 50.625 13.6406 49.9844 13.6406C49.3438 13.6406 48.8125 14.1719 48.8125 14.8125V18.1406H41.1719V14.8125C41.1719 14.1719 40.6406 13.6406 40 13.6406C39.3594 13.6406 38.8281 14.1719 38.8281 14.8125V18.1406H31.1875V14.8125C31.1875 14.1719 30.6563 13.6406 30.0156 13.6406C29.375 13.6406 28.8438 14.1719 28.8438 14.8125V18.1406H24.1875C22.1875 18.1406 20.5625 19.7656 20.5625 21.7656V62.7187C20.5625 64.7187 22.1875 66.3594 24.1875 66.3594ZM22.9063 21.7656C22.9063 21.0625 23.4844 20.4844 24.1875 20.4844H28.8438V23.8438C28.8438 24.4844 29.375 25.0156 30.0156 25.0156C30.6563 25.0156 31.1875 24.4844 31.1875 23.8438V20.4844H38.8281V23.8438C38.8281 24.4844 39.3594 25.0156 40 25.0156C40.6406 25.0156 41.1719 24.4844 41.1719 23.8438V20.4844H48.8125V23.8438C48.8125 24.4844 49.3438 25.0156 49.9844 25.0156C50.625 25.0156 51.1563 24.4844 51.1563 23.8438V20.4844H55.8125C56.5156 20.4844 57.0938 21.0625 57.0938 21.7656V62.7187C57.0938 63.4219 56.5156 64 55.8125 64H24.1875C23.4844 64 22.9063 63.4219 22.9063 62.7187V21.7656Z" fill="white"/>
<path d="M28.4219 34.2812C28.6562 34.5156 28.9531 34.625 29.25 34.625C29.5469 34.625 29.8438 34.5156 30.0781 34.2812L34.2188 30.1406C34.6719 29.6875 34.6719 28.9375 34.2188 28.4844C33.7656 28.0313 33.0156 28.0313 32.5625 28.4844L29.25 31.7969L28.0469 30.5938C27.5938 30.1406 26.8438 30.1406 26.3906 30.5938C25.9375 31.0469 25.9375 31.7969 26.3906 32.25L28.4219 34.2812Z" fill="white"/>
<path d="M37.2031 32.5469H52.7812C53.4219 32.5469 53.9531 32.0156 53.9531 31.375C53.9531 30.7344 53.4219 30.2031 52.7812 30.2031H37.2031C36.5625 30.2031 36.0312 30.7344 36.0312 31.375C36.0312 32.0156 36.5625 32.5469 37.2031 32.5469Z" fill="white"/>
<path d="M28.4219 45.1563C28.6562 45.3906 28.9531 45.5 29.25 45.5C29.5469 45.5 29.8438 45.3906 30.0781 45.1563L34.2188 41.0156C34.6719 40.5625 34.6719 39.8125 34.2188 39.3594C33.7656 38.9063 33.0156 38.9063 32.5625 39.3594L29.25 42.6563L28.0469 41.4531C27.5938 41 26.8438 41 26.3906 41.4531C25.9375 41.9062 25.9375 42.6562 26.3906 43.1094L28.4219 45.1563Z" fill="white"/>
<path d="M37.2031 43.4219H52.7812C53.4219 43.4219 53.9531 42.8906 53.9531 42.25C53.9531 41.6094 53.4219 41.0781 52.7812 41.0781H37.2031C36.5625 41.0781 36.0312 41.6094 36.0312 42.25C36.0312 42.8906 36.5625 43.4219 37.2031 43.4219Z" fill="white"/>
<path d="M28.4219 56.0156C28.6562 56.25 28.9531 56.3594 29.25 56.3594C29.5469 56.3594 29.8438 56.25 30.0781 56.0156L34.2188 51.875C34.6719 51.4219 34.6719 50.6719 34.2188 50.2188C33.7656 49.7656 33.0156 49.7656 32.5625 50.2188L29.25 53.5313L28.0469 52.3281C27.5938 51.875 26.8438 51.875 26.3906 52.3281C25.9375 52.7812 25.9375 53.5313 26.3906 53.9844L28.4219 56.0156Z" fill="white"/>
<path d="M37.2031 54.2969H52.7812C53.4219 54.2969 53.9531 53.7656 53.9531 53.125C53.9531 52.4844 53.4219 51.9531 52.7812 51.9531H37.2031C36.5625 51.9531 36.0312 52.4844 36.0312 53.125C36.0312 53.7656 36.5625 54.2969 37.2031 54.2969Z" fill="white"/>
</svg>
