<svg width="80" height="80" viewBox="0 0 80 80" fill="none" xmlns="http://www.w3.org/2000/svg">
<path d="M61.8125 66.5156C62.4531 66.5156 62.9844 65.9844 62.9844 65.3438V27.4844C62.9844 27.4687 62.9844 27.4375 62.9844 27.4219C62.9844 27.1094 62.8594 26.8125 62.6562 26.6094L51.7344 13.9375L51.7188 13.9219C51.7188 13.9219 51.7188 13.9219 51.7031 13.9062C51.6719 13.8594 51.625 13.8281 51.5938 13.7969C51.5938 13.7969 51.5938 13.7969 51.5781 13.7812C51.5312 13.75 51.5 13.7187 51.4531 13.6875L51.4375 13.6719C51.3438 13.6094 51.25 13.5781 51.1406 13.5469H51.125C51.0313 13.5312 50.9375 13.5156 50.8438 13.5156H18.1875C17.5469 13.5156 17.0156 14.0469 17.0156 14.6875V65.375C17.0156 66.0156 17.5469 66.5469 18.1875 66.5469H61.8125V66.5156ZM52.0156 17.8125L59.2656 26.2344H52.0156V17.8125ZM19.3594 15.8281H49.6719V27.4062C49.6719 28.0469 50.2031 28.5781 50.8438 28.5781H60.6563V64.1562H19.3594V15.8281Z" fill="white"/>
<path d="M28.7187 41.4219C25.4219 41.4219 22.75 44.0937 22.75 47.3906C22.75 48.8437 23.2656 50.1719 24.1406 51.2031V59.8594C24.1406 60.2969 24.3906 60.7031 24.7812 60.9062C25.1719 61.1094 25.6406 61.0781 26 60.8125L28.7344 58.8594L31.4531 60.8125C31.6562 60.9531 31.8906 61.0312 32.1406 61.0312C32.3281 61.0312 32.5 60.9844 32.6719 60.9062C33.0625 60.7031 33.3125 60.2969 33.3125 59.8594V51.2031C34.1719 50.1719 34.7031 48.8437 34.7031 47.3906C34.6875 44.1094 32.0156 41.4219 28.7187 41.4219ZM28.7187 43.7656C30.7187 43.7656 32.3437 45.3906 32.3437 47.3906C32.3437 49.3906 30.7187 51.0156 28.7187 51.0156C27.7187 51.0156 26.7969 50.6094 26.1406 49.9375C26.1406 49.9375 26.1406 49.9375 26.125 49.9219C25.4844 49.2656 25.0938 48.375 25.0938 47.3906C25.0938 45.3906 26.7187 43.7656 28.7187 43.7656ZM29.4062 56.4531C29 56.1562 28.4531 56.1562 28.0312 56.4531L26.4687 57.5781V52.9219C27.1562 53.2031 27.9219 53.3594 28.7031 53.3594C29.5 53.3594 30.25 53.2031 30.9375 52.9219V57.5781L29.4062 56.4531Z" fill="white"/>
<path d="M24.3594 22.8906H28.7188C29.3594 22.8906 29.8906 22.3594 29.8906 21.7188C29.8906 21.0781 29.3594 20.5469 28.7188 20.5469H24.3594C23.7188 20.5469 23.1875 21.0781 23.1875 21.7188C23.1875 22.3594 23.7188 22.8906 24.3594 22.8906Z" fill="white"/>
<path d="M41.2031 25.5469H24.3594C23.7188 25.5469 23.1875 26.0781 23.1875 26.7188C23.1875 27.3594 23.7188 27.8906 24.3594 27.8906H41.2031C41.8438 27.8906 42.375 27.3594 42.375 26.7188C42.375 26.0781 41.8438 25.5469 41.2031 25.5469Z" fill="white"/>
<path d="M41.2031 30.5625H24.3594C23.7188 30.5625 23.1875 31.0938 23.1875 31.7344C23.1875 32.375 23.7188 32.9062 24.3594 32.9062H41.2031C41.8438 32.9062 42.375 32.375 42.375 31.7344C42.375 31.0938 41.8438 30.5625 41.2031 30.5625Z" fill="white"/>
</svg>
