<svg width="80" height="80" viewBox="0 0 80 80" fill="none" xmlns="http://www.w3.org/2000/svg">
<path d="M12.8798 54.8829H2.70428C1.61955 54.8829 0.740799 54.0041 0.740799 52.9194V52.1257C0.740799 42.313 8.76196 34.2919 18.5746 34.2919H19.6972C20.6893 25.5242 28.1813 18.8184 37.0227 18.8184H48.5305C57.3718 18.8184 64.8629 25.5242 65.8559 34.2919H68.9637C74.6302 34.2919 79.2592 38.9209 79.2592 44.5874C79.2592 50.2539 74.6311 54.8829 68.9637 54.8829H67.1202C66.2216 58.5717 62.9032 61.1806 59.0943 61.1806C55.2845 61.1806 51.967 58.5717 51.0675 54.8829H28.9325C28.033 58.5717 24.7155 61.1806 20.9057 61.1806C17.0968 61.1806 13.7793 58.5717 12.8798 54.8829ZM35.9701 50.9559V38.2188H18.5746C11.3793 38.2188 5.32162 43.7975 4.71689 50.9559H12.8798C13.7793 47.2671 17.0959 44.6582 20.9057 44.6582C24.7155 44.6582 28.033 47.2671 28.9325 50.9559H35.9701ZM39.897 38.2188V50.9559H51.0675C51.967 47.2671 55.2845 44.6582 59.0943 44.6582C62.9032 44.6582 66.2216 47.2671 67.1202 50.9559H68.9637C72.4626 50.9559 75.3323 48.0854 75.3323 44.5874C75.3323 41.0885 72.4626 38.2188 68.9637 38.2188C59.2748 38.2188 49.5859 38.2188 39.897 38.2188ZM44.7405 22.7453V34.2919H61.8959C60.9246 27.7041 55.2071 22.7453 48.5305 22.7453H44.7405ZM40.8126 34.2919V22.7453H37.0227C30.3461 22.7453 24.6285 27.7041 23.6572 34.2919H40.8126ZM20.9057 48.5852C18.5123 48.5852 16.5715 50.526 16.5715 52.9194C16.5715 55.3128 18.5123 57.2536 20.9057 57.2536C23.3 57.2536 25.2408 55.3138 25.2408 52.9194C25.2408 50.526 23.3 48.5852 20.9057 48.5852ZM59.0943 48.5852C56.7 48.5852 54.7592 50.526 54.7592 52.9194C54.7592 55.3128 56.7 57.2536 59.0943 57.2536C61.4877 57.2536 63.4285 55.3138 63.4285 52.9194C63.4285 50.526 61.4877 48.5852 59.0943 48.5852Z" fill="#CAB57B"/>
</svg>
