<svg width="80" height="80" viewBox="0 0 80 80" fill="none" xmlns="http://www.w3.org/2000/svg">
<path d="M68.873 36.1232C73.8138 36.1232 77.8183 40.1286 77.8183 45.0684C77.8183 50.0083 73.8129 54.0137 68.873 54.0137C63.9331 54.0137 59.9277 50.0093 59.9277 45.0684C59.9277 40.1286 63.9331 36.1232 68.873 36.1232ZM41.954 53.0225L52.0889 59.923C54.2045 61.3668 52.0077 64.587 49.8911 63.1442L40 56.409L30.1089 63.1442C27.9924 64.587 25.7955 61.3668 27.9111 59.923L38.046 53.0225V40.2542C38.046 37.6851 41.954 37.6851 41.954 40.2542V53.0225ZM38.046 2.86778C38.046 0.298629 41.954 0.298629 41.954 2.86778V4.31441H43.9156C46.4848 4.31441 46.4848 8.22247 43.9156 8.22247H41.954V12.5397H42.4237C46.0397 12.5397 49.1862 14.8622 49.1862 18.6049C49.1862 22.3486 46.0397 24.6711 42.4237 24.6711H41.954V26.1187C41.954 28.6878 38.046 28.6878 38.046 26.1187V24.6711H36.0844C33.5152 24.6711 33.5152 20.764 36.0844 20.764H38.046V16.4468H37.5764C33.9603 16.4468 30.8138 14.1233 30.8138 10.3806C30.8138 6.63789 33.9603 4.31441 37.5764 4.31441H38.046V2.86778ZM41.954 16.4468V20.764H42.4237C43.7909 20.764 45.2791 20.1574 45.2791 18.6049C45.2791 17.0534 43.7909 16.4468 42.4237 16.4468H41.954ZM38.046 12.5397V8.22247H37.5764C36.2091 8.22247 34.7209 8.82909 34.7209 10.3806C34.7209 11.9321 36.2091 12.5397 37.5764 12.5397H38.046ZM3.43752 55.5633H18.8165C19.8956 55.5633 20.7696 56.4383 20.7696 57.5164V77.1059C20.7696 78.1849 19.8956 79.0599 18.8165 79.0599H3.43752C2.3594 79.0599 1.48444 78.1849 1.48444 77.1059V57.5164C1.48444 56.4383 2.3594 55.5633 3.43752 55.5633ZM16.8625 59.4704H5.39155V75.1528H16.8625V59.4704ZM11.127 36.1232C16.0669 36.1232 20.0723 40.1286 20.0723 45.0684C20.0723 50.0093 16.0669 54.0137 11.127 54.0137C6.18715 54.0137 2.18176 50.0083 2.18176 45.0684C2.18176 40.1286 6.18715 36.1232 11.127 36.1232ZM11.127 40.0303C8.34433 40.0303 6.08888 42.2857 6.08888 45.0684C6.08888 47.8511 8.34433 50.1066 11.127 50.1066C13.9097 50.1066 16.1652 47.8511 16.1652 45.0684C16.1652 42.2857 13.9097 40.0303 11.127 40.0303ZM61.1835 55.5633H76.5625C77.6406 55.5633 78.5156 56.4383 78.5156 57.5164V77.1059C78.5156 78.1849 77.6406 79.0599 76.5625 79.0599H61.1835C60.1054 79.0599 59.2304 78.1849 59.2304 77.1059V57.5164C59.2304 56.4383 60.1054 55.5633 61.1835 55.5633ZM74.6085 59.4704H63.1375V75.1528H74.6085V59.4704ZM68.873 40.0303C66.0903 40.0303 63.8348 42.2857 63.8348 45.0684C63.8348 47.8511 66.0903 50.1066 68.873 50.1066C71.6557 50.1066 73.9111 47.8511 73.9111 45.0684C73.9111 42.2857 71.6557 40.0303 68.873 40.0303Z" fill="#CAB57B"/>
</svg>
