<svg width="80" height="80" viewBox="0 0 80 80" fill="none" xmlns="http://www.w3.org/2000/svg">
<path d="M30.8544 45.4777C28.2702 45.4777 28.2702 41.5488 30.8544 41.5488H32.8472C34.3694 37.2732 38.1717 34.0001 42.8545 34.0001C45.8961 34.0001 48.6552 35.3966 50.6272 37.6833C52.31 39.6288 49.3478 42.1913 47.665 40.2458C46.4442 38.8313 44.7424 37.9289 42.8545 37.9289C40.3808 37.9289 38.3039 39.4502 37.1332 41.5488H45.4284C48.0127 41.5488 48.0127 45.4777 45.4284 45.4777H36.0419C36.0362 45.6147 36.0334 45.7536 36.0334 45.8925C36.0334 46.0323 36.0362 46.1703 36.0419 46.3082H45.4284C48.0127 46.3082 48.0127 50.2371 45.4284 50.2371H37.1332C38.3039 52.3347 40.3818 53.856 42.8545 53.856C44.7424 53.856 46.4442 52.9546 47.665 51.5391C49.3478 49.5936 52.31 52.1571 50.6272 54.1026C48.6552 56.3892 45.8961 57.7848 42.8545 57.7848C38.1717 57.7848 34.3694 54.5127 32.8482 50.2371H30.8544C28.2702 50.2371 28.2702 46.3082 30.8544 46.3082H32.1111C32.1064 46.1703 32.1045 46.0314 32.1045 45.8925C32.1045 45.7536 32.1064 45.6156 32.1111 45.4777H30.8544ZM67.0645 42.1044C64.4802 42.1044 64.4802 38.1765 67.0645 38.1765H75.3549V24.006C51.7847 24.006 28.2154 24.006 4.6451 24.006V38.1765H12.9356C15.5198 38.1765 15.5198 42.1044 12.9356 42.1044H4.6451V49.6805H12.9356C15.5198 49.6805 15.5198 53.6094 12.9356 53.6094H4.6451V67.7789H75.3549V53.6094H67.0645C64.4802 53.6094 64.4802 49.6805 67.0645 49.6805H75.3549V42.1044H67.0645ZM79.2838 69.7434C79.2838 70.8281 78.4041 71.7078 77.3194 71.7078H2.68067C1.59594 71.7078 0.716248 70.8281 0.716248 69.7434C0.716248 53.8428 0.716248 37.9422 0.716248 22.0416C0.716248 20.9568 1.59594 20.0771 2.68067 20.0771H21.4811C22.4534 13.3495 28.2739 8.29248 35.0894 8.29248H44.9106C51.7252 8.29248 57.5466 13.3495 58.5189 20.0771H77.3194C78.4041 20.0771 79.2838 20.9568 79.2838 22.0416C79.2838 37.9422 79.2838 53.8428 79.2838 69.7434ZM54.5315 20.0771C53.5989 15.5388 49.5614 12.2213 44.9106 12.2213H35.0894C30.4387 12.2213 26.4012 15.5388 25.4686 20.0771H54.5315Z" fill="#CAB57B"/>
</svg>
