<svg width="80" height="80" viewBox="0 0 80 80" fill="none" xmlns="http://www.w3.org/2000/svg">
<path d="M66.7141 79.8438H13.2859C12.6187 79.8438 12.0781 79.3032 12.0781 78.636V37.2142C12.0781 36.547 12.6187 36.0063 13.2859 36.0063H66.7125C67.3797 36.0063 67.9203 36.547 67.9203 37.2142V78.636C67.9203 79.3032 67.3812 79.8438 66.7141 79.8438ZM14.4937 77.4298H65.5062V38.422H14.4937V77.4298Z" fill="#CAB57B"/>
<path d="M66.7141 48.4001H13.2859C12.6187 48.4001 12.0781 47.8595 12.0781 47.1923V37.2142C12.0781 36.547 12.6187 36.0063 13.2859 36.0063H66.7125C67.3797 36.0063 67.9203 36.547 67.9203 37.2142V47.1923C67.9203 47.8595 67.3812 48.4001 66.7141 48.4001ZM14.4937 45.9845H65.5062V38.422H14.4937V45.9845Z" fill="#CAB57B"/>
<path d="M62.6031 38.4219H16.9391C16.2719 38.4219 15.7313 37.8812 15.7313 37.2141V24.1953C15.7313 10.9406 26.5156 0.15625 39.7719 0.15625C53.0281 0.15625 63.811 10.9406 63.811 24.1953V37.2141C63.811 37.8812 63.2703 38.4219 62.6031 38.4219ZM18.1469 36.0078H61.3953V24.1953C61.3953 12.2719 51.6953 2.57031 39.7703 2.57031C27.8453 2.57031 18.1453 12.2719 18.1453 24.1953V36.0078H18.1469Z" fill="#CAB57B"/>
<path d="M53.9531 38.4219H26.0469C25.3797 38.4219 24.8391 37.8813 24.8391 37.2141V23.2609C24.8391 14.9016 31.6406 8.10156 40 8.10156C48.3594 8.10156 55.1609 14.9031 55.1609 23.2609V37.2141C55.1609 37.8813 54.6203 38.4219 53.9531 38.4219ZM27.2547 36.0078H52.7469V23.2625C52.7469 16.2344 47.0297 10.5172 40.0016 10.5172C32.9734 10.5172 27.2562 16.2344 27.2562 23.2625V36.0078H27.2547Z" fill="#CAB57B"/>
<path d="M41.8828 71.5673H37.8875C37.2203 71.5673 36.6797 71.0267 36.6797 70.3595V61.5485C35.5375 60.6017 34.8719 59.2095 34.8719 57.7064C34.8719 54.9423 37.1203 52.6938 39.8844 52.6938C42.6484 52.6938 44.8969 54.9423 44.8969 57.7064C44.8969 59.2095 44.2312 60.6017 43.089 61.5485V70.3595C43.0906 71.0267 42.55 71.5673 41.8828 71.5673ZM39.0953 69.1517H40.675V60.9329C40.675 60.5142 40.8906 60.1267 41.2453 59.9063C42.0203 59.4251 42.4828 58.6032 42.4828 57.7064C42.4828 56.2735 41.3172 55.1079 39.8859 55.1079C38.4547 55.1079 37.289 56.2735 37.289 57.7064C37.289 58.6032 37.7515 59.4251 38.5265 59.9063C38.8812 60.1267 39.0969 60.5142 39.0969 60.9329V69.1517H39.0953Z" fill="#CAB57B"/>
</svg>
