<svg width="104" height="74" viewBox="0 0 104 74" fill="none" xmlns="http://www.w3.org/2000/svg">
<path fill-rule="evenodd" clip-rule="evenodd" d="M40.046 14.4783C43.931 14.4783 47.4176 16.087 49.908 18.6005C52.3985 21.2147 53.9923 24.7337 53.9923 28.5543V39.5136H47.4176V28.6549C47.4176 26.5435 46.6207 24.7337 45.2261 23.3261C43.931 22.019 42.0383 21.1141 39.9464 21.1141C37.8544 21.1141 36.0613 21.9185 34.6667 23.3261C33.3716 24.6332 32.4751 26.5435 32.4751 28.6549V42.0272C32.4751 44.1386 33.272 45.9484 34.6667 47.356C36.0613 48.7636 37.8544 49.5679 39.9464 49.5679V56.2038C36.0613 56.2038 32.5747 54.5951 30.0843 52.0815C27.5939 49.5679 26 45.9484 26 42.1277V28.6549C26 24.7337 27.5939 21.2147 30.0843 18.7011C32.6743 16.087 36.1609 14.4783 40.046 14.4783Z" fill="white"/>
<path fill-rule="evenodd" clip-rule="evenodd" d="M71.4253 14.4783C75.3103 14.4783 78.7969 16.087 81.2873 18.6005C83.7778 21.2147 85.3716 24.7337 85.3716 28.5543V39.5136H78.7969V28.6549C78.7969 26.5435 78 24.7337 76.6054 23.3261C75.3103 22.019 73.4176 21.1141 71.3257 21.1141C69.2337 21.1141 67.4406 21.9185 66.046 23.3261C64.751 24.6332 63.8544 26.5435 63.8544 28.6549V42.0272C63.8544 44.1386 64.6513 45.9484 66.046 47.356C67.4406 48.7636 69.2337 49.5679 71.3257 49.5679V56.2038C67.4406 56.2038 63.954 54.5951 61.4636 52.0815C58.9732 49.5679 57.3793 45.9484 57.3793 42.1277V28.6549C57.3793 24.7337 58.9732 21.2147 61.4636 18.7011C64.1533 16.087 67.6398 14.4783 71.4253 14.4783Z" fill="white"/>
<path fill-rule="evenodd" clip-rule="evenodd" d="M89.456 51.3777C89.0575 51.7799 88.9579 52.1821 88.9579 52.7853C88.9579 53.288 89.1571 53.7908 89.456 54.1929C89.8544 54.5951 90.2529 54.6957 90.8506 54.6957C91.1494 54.6957 91.5479 54.5951 91.8468 54.4946C92.1456 54.394 92.3448 54.1929 92.5441 54.0924L92.7433 53.8913L93.7395 54.9973L93.6399 55.0978C93.6399 55.1984 93.4406 55.2989 93.341 55.3995C93.1418 55.6005 92.9425 55.7011 92.7433 55.8016C92.5441 55.9022 92.2452 56.0027 91.9464 56.1033C91.6475 56.2038 91.2491 56.2038 90.9502 56.2038C89.954 56.2038 89.0575 55.9022 88.3602 55.1984C87.6628 54.4946 87.2644 53.6902 87.2644 52.6848C87.2644 51.6794 87.6628 50.875 88.3602 50.1712C89.0575 49.4674 89.954 49.1658 90.9502 49.1658C91.3487 49.1658 91.6475 49.1658 91.9464 49.2663C92.2452 49.3668 92.5441 49.4674 92.7433 49.5679C92.9425 49.6685 93.1418 49.8696 93.2414 49.9701C93.4406 50.0707 93.5402 50.1712 93.5402 50.2717L93.6399 50.3723L92.5441 51.4783C92.5441 51.4783 92.5441 51.3777 92.4445 51.3777C92.4445 51.3777 92.3448 51.2772 92.2452 51.1766C92.1456 51.0761 92.046 50.9755 91.9464 50.875C91.8468 50.7745 91.6475 50.7745 91.4483 50.6739C91.2491 50.5734 91.0498 50.5734 90.8506 50.5734C90.2529 50.875 89.8544 50.9755 89.456 51.3777ZM81.387 49.3668H86.8659V50.9755H84.9732V56.1033H83.1801V50.9755H81.2874V49.3668H81.387ZM78.1992 50.875H77.2031V51.981H78.1992C78.3985 51.981 78.4981 51.8804 78.6973 51.7799C78.7969 51.6793 78.8966 51.5788 78.8966 51.3777C78.8966 51.1766 78.7969 51.0761 78.6973 50.9755C78.5977 50.875 78.3985 50.875 78.1992 50.875ZM77.2031 54.6957H78.3985C78.5977 54.6957 78.7969 54.5951 78.8966 54.4946C78.9962 54.394 79.0958 54.1929 79.0958 53.9918C79.0958 53.7908 78.9962 53.5897 78.8966 53.4891C78.8966 53.3886 78.6973 53.288 78.4981 53.288H77.3027V54.6957H77.2031ZM78.5977 56.1033H75.41V49.3668H78.3985C79.0958 49.3668 79.5939 49.5679 80.092 49.8696C80.4904 50.2717 80.6897 50.6739 80.6897 51.0761C80.6897 51.2772 80.6897 51.4783 80.5901 51.5788C80.4904 51.7799 80.4904 51.8804 80.3908 51.981C80.2912 52.0815 80.1916 52.1821 80.1916 52.2826C80.092 52.3832 79.9924 52.3832 79.9924 52.4837H79.8927C79.8927 52.4837 79.9924 52.4837 79.9924 52.5842C80.092 52.5842 80.092 52.6848 80.2912 52.7853C80.3908 52.8859 80.5901 52.9864 80.6897 53.087C80.7893 53.1875 80.8889 53.3886 80.9885 53.4891C81.0881 53.6902 81.0881 53.8913 81.0881 54.0924C81.0881 54.5951 80.8889 55.0978 80.3908 55.5C79.8927 55.9022 79.295 56.1033 78.5977 56.1033Z" fill="white"/>
<path fill-rule="evenodd" clip-rule="evenodd" d="M22.613 21.1141V39.6141H16.0383V21.1141H12.0536V14.4783H22.613V21.1141Z" fill="white"/>
</svg>
