<svg width="80" height="80" viewBox="0 0 80 80" fill="none" xmlns="http://www.w3.org/2000/svg">
<path d="M64.4844 21H35.875C35.5625 21 35.2656 21.125 35.0469 21.3438L30.7031 25.6875L26.4219 21.4063C26.2031 21.1875 25.9062 21.0625 25.5938 21.0625H15.5156C14.875 21.0625 14.3438 21.5938 14.3438 22.2344V57.7656C14.3438 58.4062 14.875 58.9375 15.5156 58.9375H25.5938C25.9062 58.9375 26.2031 58.8125 26.4219 58.5937L30.7031 54.3125L35.0469 58.6562C35.2656 58.875 35.5625 59 35.875 59H64.4844C65.125 59 65.6563 58.4688 65.6563 57.8281V22.1719C65.6563 21.5156 65.125 21 64.4844 21ZM63.3125 56.6562H36.3594L31.5312 51.8281C31.0781 51.375 30.3281 51.375 29.875 51.8281L25.1094 56.5938H16.6875V23.4063H25.1094L29.875 28.1719C30.3281 28.625 31.0781 28.625 31.5312 28.1719L36.3594 23.3437H63.3125V56.6562Z" fill="white"/>
<path d="M43.2656 36.75C45.6719 36.75 47.6406 34.7812 47.6406 32.375C47.6406 29.9688 45.6719 28 43.2656 28C40.8594 28 38.8906 29.9688 38.8906 32.375C38.8906 34.7812 40.8438 36.75 43.2656 36.75ZM43.2656 30.3438C44.3906 30.3438 45.2969 31.25 45.2969 32.375C45.2969 33.5 44.3906 34.4062 43.2656 34.4062C42.1406 34.4062 41.2344 33.5 41.2344 32.375C41.2344 31.25 42.1406 30.3438 43.2656 30.3438Z" fill="white"/>
<path d="M56.25 41C53.8438 41 51.875 42.9688 51.875 45.375C51.875 47.7812 53.8438 49.75 56.25 49.75C58.6562 49.75 60.625 47.7812 60.625 45.375C60.625 42.9688 58.6562 41 56.25 41ZM56.25 47.4062C55.125 47.4062 54.2188 46.5 54.2188 45.375C54.2188 44.25 55.125 43.3438 56.25 43.3438C57.375 43.3438 58.2812 44.25 58.2812 45.375C58.2812 46.5 57.375 47.4062 56.25 47.4062Z" fill="white"/>
<path d="M40.0938 48.5469C40.3281 48.7813 40.625 48.8906 40.9219 48.8906C41.2187 48.8906 41.5156 48.7813 41.75 48.5469L59.4219 30.875C59.875 30.4219 59.875 29.6719 59.4219 29.2188C58.9687 28.7656 58.2188 28.7656 57.7656 29.2188L40.0938 46.8906C39.625 47.3438 39.625 48.0781 40.0938 48.5469Z" fill="white"/>
<path d="M30.7031 31.6406C30.3906 31.6406 30.0937 31.7656 29.875 31.9844C29.6562 32.2031 29.5312 32.5 29.5312 32.8125C29.5312 33.125 29.6562 33.4219 29.875 33.6406C30.0937 33.8594 30.3906 33.9844 30.7031 33.9844C31.0156 33.9844 31.3125 33.8594 31.5313 33.6406C31.75 33.4219 31.875 33.125 31.875 32.8125C31.875 32.5 31.75 32.2031 31.5313 31.9844C31.3125 31.7656 31 31.6406 30.7031 31.6406Z" fill="white"/>
<path d="M30.7031 36.4375C30.3906 36.4375 30.0937 36.5625 29.875 36.7812C29.6562 37 29.5312 37.2969 29.5312 37.6094C29.5312 37.9219 29.6562 38.2188 29.875 38.4375C30.0937 38.6563 30.3906 38.7812 30.7031 38.7812C31.0156 38.7812 31.3125 38.6563 31.5313 38.4375C31.75 38.2188 31.875 37.9219 31.875 37.6094C31.875 37.2969 31.75 37 31.5313 36.7812C31.3125 36.5625 31 36.4375 30.7031 36.4375Z" fill="white"/>
<path d="M30.7031 41.2188C30.3906 41.2188 30.0937 41.3438 29.875 41.5625C29.6562 41.7813 29.5312 42.0781 29.5312 42.3906C29.5312 42.7031 29.6562 43 29.875 43.2188C30.0937 43.4375 30.3906 43.5625 30.7031 43.5625C31.0156 43.5625 31.3125 43.4375 31.5313 43.2188C31.75 43 31.875 42.7031 31.875 42.3906C31.875 42.0781 31.75 41.7813 31.5313 41.5625C31.3125 41.3438 31 41.2188 30.7031 41.2188Z" fill="white"/>
<path d="M30.7031 46.0156C30.3906 46.0156 30.0937 46.1406 29.875 46.3594C29.6562 46.5781 29.5312 46.875 29.5312 47.1875C29.5312 47.5 29.6562 47.7969 29.875 48.0156C30.0937 48.2344 30.3906 48.3594 30.7031 48.3594C31.0156 48.3594 31.3125 48.2344 31.5313 48.0156C31.75 47.7969 31.875 47.5 31.875 47.1875C31.875 46.875 31.75 46.5781 31.5313 46.3594C31.3125 46.1406 31 46.0156 30.7031 46.0156Z" fill="white"/>
</svg>
