<svg width="80" height="80" viewBox="0 0 80 80" fill="none" xmlns="http://www.w3.org/2000/svg">
<path d="M40.1891 79.8438C39.8219 79.8438 39.4281 79.7984 39.0359 79.6719C4.82969 68.5219 8.70782 22.6578 9.2625 17.4656C9.3125 16.9922 9.63907 16.5906 10.0938 16.4453C17.2891 14.1297 36.4844 6.82501 38.8641 0.915638C39.0438 0.468763 39.4719 0.171888 39.9531 0.159388C40.4234 0.137513 40.8766 0.420326 41.0797 0.857826C43.6891 6.46251 62.9422 14.0203 70.1406 16.4578C70.6063 16.6156 70.9297 17.0406 70.9594 17.5313C73.6453 63.4453 46.7703 78.6281 41.3672 79.7156C41.0453 79.7781 40.6359 79.8438 40.1891 79.8438ZM11.5875 18.4969C10.8891 26.1625 8.67188 67.2344 39.7828 77.375C40.1109 77.4844 40.5703 77.4094 40.8891 77.3453C45.6438 76.3891 70.7859 61.4766 68.5906 18.4766C64.0266 16.8906 45.5734 10.1813 40.0391 3.6172C34.7328 10.5063 16.1344 16.9906 11.5875 18.4969Z" fill="#CAB57B"/>
<path d="M40.1391 70.7906C39.8313 70.7906 39.5 70.7515 39.1672 70.6437C12.7656 62.0391 15.7531 26.7156 16.1797 22.7156C16.2297 22.2422 16.5563 21.8406 17.0109 21.6953C22.4844 19.9344 37.0828 14.3922 38.8641 9.96874C39.0438 9.52186 39.4719 9.22499 39.9531 9.21249C40.4234 9.19061 40.8766 9.47343 41.0797 9.91093C43.0344 14.1125 57.6859 19.85 63.1656 21.7078C63.6313 21.8656 63.9547 22.2906 63.9844 22.7812C66.05 58.1375 45.2734 69.8437 41.0969 70.6844C40.8359 70.7359 40.5047 70.7906 40.1391 70.7906ZM18.5063 23.7453C17.9609 30.0219 16.5359 60.7281 39.9172 68.3484C40.1234 68.4203 40.4984 68.3422 40.6219 68.3172C44.2188 67.5937 63.2016 56.3047 61.6141 23.725C57.8938 22.4234 44.525 17.5047 40.0344 12.575C35.7031 17.7437 22.2156 22.5078 18.5063 23.7453Z" fill="#CAB57B"/>
<path d="M41.5399 54.2578H38.7135C38.1356 54.2578 37.6618 53.8235 37.6102 53.2477L37.2954 49.6394C36.6407 49.4442 36.009 49.182 35.4068 48.8552L32.6321 51.1836C32.1879 51.5554 31.5463 51.5269 31.1383 51.12L29.1378 49.1195C28.7298 48.7115 28.7013 48.0688 29.072 47.6258L31.4026 44.8499C31.0758 44.2478 30.8136 43.6149 30.6184 42.9613L27.0112 42.6454C26.4354 42.5961 26 42.1212 26 41.5421V38.7157C26 38.1367 26.4354 37.6618 27.0123 37.6124L30.6184 37.2965C30.8136 36.6429 31.0758 36.0101 31.4026 35.4079L29.0731 32.6332C28.7013 32.189 28.7298 31.5463 29.1389 31.1383L31.1372 29.14C31.5452 28.7309 32.189 28.7013 32.6332 29.0742L35.4079 31.4026C36.0112 31.0758 36.6429 30.8136 37.2965 30.6184L37.6113 27.0112C37.6629 26.4332 38.1378 26 38.7146 26H41.541C42.1201 26 42.595 26.4354 42.6443 27.0123L42.9602 30.6195C43.6138 30.8136 44.2467 31.0769 44.8488 31.4037L47.6236 29.0753C48.0601 28.7079 48.7192 28.7375 49.1206 29.1433L51.1167 31.1394C51.5269 31.5474 51.5554 32.1901 51.1814 32.6353L48.853 35.409C49.1799 36.0112 49.442 36.6429 49.6372 37.2976L53.2444 37.6135C53.8202 37.6629 54.2556 38.1378 54.2556 38.7168V41.5432C54.2556 42.1223 53.8202 42.5971 53.2433 42.6465L49.6372 42.9624C49.442 43.616 49.1799 44.2489 48.853 44.851L51.1825 47.6258C51.5554 48.0688 51.5269 48.7126 51.1156 49.1217L49.1184 51.1189C48.7115 51.528 48.0699 51.5576 47.6247 51.1858L44.8477 48.8552C44.2445 49.1809 43.6127 49.4442 42.9591 49.6394L42.6432 53.2466C42.5939 53.8224 42.119 54.2578 41.5399 54.2578ZM39.251 52.5622H41.0014L41.3063 49.0789C41.3469 48.6117 41.6803 48.2224 42.1365 48.1083C42.9108 47.9131 43.6544 47.6038 44.3454 47.1903C44.7479 46.9491 45.2601 46.9885 45.6198 47.2912L48.2992 49.5396L49.5374 48.3024L47.288 45.622C46.9874 45.2623 46.9469 44.7523 47.1882 44.3498C47.6027 43.6577 47.9109 42.9141 48.1061 42.1398C48.2191 41.6857 48.6084 41.3523 49.0724 41.3085L52.5611 41.0036V39.2542L49.0768 38.9493C48.6117 38.911 48.2213 38.5765 48.1061 38.1202C47.9109 37.3448 47.6027 36.6012 47.1892 35.9103C46.948 35.5077 46.9885 34.9967 47.288 34.638L49.5385 31.9565L48.3003 30.7193L45.6209 32.9688C45.2579 33.2693 44.7457 33.3088 44.3454 33.0675C43.6555 32.654 42.913 32.3458 42.1376 32.1517C41.6825 32.0376 41.3479 31.6472 41.3074 31.1822L41.0025 27.6967H39.2521L38.9483 31.1811C38.9077 31.6483 38.5743 32.0376 38.118 32.1517C37.3426 32.3458 36.599 32.6551 35.9092 33.0686C35.5088 33.3099 34.9967 33.2704 34.6369 32.971L31.9554 30.7193L30.716 31.9576L32.9666 34.638C33.2671 34.9978 33.3077 35.5077 33.0664 35.9103C32.6518 36.6023 32.3436 37.3459 32.1484 38.1202C32.0332 38.5775 31.6417 38.911 31.1745 38.9504L27.6934 39.2553V41.0047L31.1778 41.3096C31.6461 41.3523 32.0354 41.6857 32.1495 42.1409C32.3436 42.9152 32.6529 43.6577 33.0664 44.3487C33.3077 44.7512 33.2671 45.2623 32.9677 45.6209L30.716 48.3024L31.9543 49.5396L34.6347 47.2901C34.9923 46.9874 35.5066 46.9469 35.9113 47.1925C36.599 47.6038 37.3426 47.9131 38.1191 48.1083C38.5743 48.2224 38.9077 48.6128 38.9483 49.0779L39.251 52.5622ZM42.5511 49.7513C42.5511 49.7524 42.55 49.7524 42.55 49.7524C42.55 49.7524 42.55 49.7524 42.5511 49.7513ZM35.0372 48.6457C35.0383 48.6468 35.0405 48.6479 35.0416 48.6479C35.0405 48.6468 35.0383 48.6457 35.0372 48.6457ZM35.726 48.5865L35.7227 48.5887C35.7238 48.5887 35.7249 48.5876 35.726 48.5865ZM49.9169 47.9219C49.9169 47.923 49.9158 47.923 49.9147 47.9241L49.9169 47.9219ZM31.0297 37.2625C31.0286 37.2625 31.0275 37.2625 31.0264 37.2625H31.0297ZM49.2193 37.2625H49.2226C49.2215 37.2625 49.2204 37.2625 49.2193 37.2625ZM49.9158 32.3381C49.9158 32.3381 49.9169 32.3392 49.918 32.3403L49.9158 32.3381ZM35.0372 31.6154C35.0361 31.6165 35.035 31.6176 35.0339 31.6176C35.035 31.6165 35.0361 31.6165 35.0372 31.6154ZM45.214 31.6143C45.2151 31.6154 45.2151 31.6154 45.2162 31.6165C45.2151 31.6154 45.214 31.6154 45.214 31.6143ZM48.7126 30.3727L48.7104 30.3749C48.7115 30.3738 48.7115 30.3727 48.7126 30.3727ZM47.9175 30.3398C47.9186 30.3409 47.9197 30.342 47.9208 30.3431L47.9175 30.3398ZM32.3348 30.3388L32.3326 30.3398C32.3348 30.3398 32.3348 30.3388 32.3348 30.3388Z" fill="#CAB57B"/>
<path d="M40.1262 45.1143C37.3777 45.1143 35.1425 42.8791 35.1425 40.1306C35.1425 37.3833 37.3777 35.147 40.1262 35.147C42.8746 35.147 45.1098 37.3822 45.1098 40.1306C45.1098 42.878 42.8746 45.1143 40.1262 45.1143ZM40.1262 36.8415C38.3133 36.8415 36.8381 38.3166 36.8381 40.1295C36.8381 41.9424 38.3133 43.4187 40.1262 43.4187C41.9391 43.4187 43.4142 41.9435 43.4142 40.1295C43.4142 38.3155 41.9391 36.8415 40.1262 36.8415Z" fill="#CAB57B"/>
</svg>
