<svg width="80" height="80" viewBox="0 0 80 80" fill="none" xmlns="http://www.w3.org/2000/svg">
<path d="M71.4875 78.0563H8.5125C3.90469 78.0563 0.15625 74.3078 0.15625 69.7V23.4578C0.15625 18.85 3.90469 15.1016 8.5125 15.1016H71.4859C75.4172 15.2484 79.7969 18.8469 79.8422 23.4453V69.6984C79.8438 74.3078 76.0953 78.0563 71.4875 78.0563ZM71.4422 17.5156H8.51406C5.2375 17.5156 2.57187 20.1813 2.57187 23.4578V69.7C2.57187 72.9766 5.2375 75.6422 8.51406 75.6422H71.4875C74.7641 75.6422 77.4297 72.9766 77.4297 69.7V23.4578C77.3969 20.2422 74.1844 17.6187 71.4422 17.5156Z" fill="#CAB57B"/>
<path d="M67.6234 49.4594H12.4906C9.54844 49.4594 7.15469 47.0656 7.15469 44.1234V16.3094C7.15469 15.6422 7.69532 15.1016 8.36251 15.1016H71.7547C72.4219 15.1016 72.9625 15.6422 72.9625 16.3094V44.1234C72.9609 47.0656 70.5656 49.4594 67.6234 49.4594ZM9.56876 17.5156V44.1219C9.56876 45.7328 10.8797 47.0437 12.4906 47.0437H67.6234C69.2344 47.0437 70.5453 45.7328 70.5453 44.1219V17.5156H9.56876Z" fill="#CAB57B"/>
<path d="M50.6484 49.4593H30.8734C30.2062 49.4593 29.6656 48.9187 29.6656 48.2515V38.2125C29.6656 37.5453 30.2062 37.0046 30.8734 37.0046H50.6484C51.3156 37.0046 51.8562 37.5453 51.8562 38.2125V48.2515C51.8547 48.9187 51.3141 49.4593 50.6484 49.4593ZM32.0812 47.0453H49.4406V39.4203H32.0812V47.0453Z" fill="#CAB57B"/>
<path d="M40.2281 58.5858C36.8359 58.5858 34.0766 55.8265 34.0766 52.4358C34.0766 50.2921 35.1531 48.3452 36.9547 47.2265C37.5188 46.8733 38.2641 47.0483 38.6172 47.6155C38.9688 48.1827 38.7953 48.9265 38.2281 49.278C37.1406 49.953 36.4906 51.1343 36.4906 52.4358C36.4906 54.4952 38.1672 56.1718 40.2266 56.1718C42.2859 56.1718 43.9625 54.4952 43.9625 52.4358C43.9625 51.1452 43.3094 49.964 42.2172 49.2733C41.6531 48.9171 41.4844 48.1718 41.8406 47.6077C42.1969 47.0437 42.9438 46.8765 43.5063 47.2312C45.3031 48.3655 46.3766 50.3108 46.3766 52.4358C46.3781 55.8265 43.6203 58.5858 40.2281 58.5858Z" fill="#CAB57B"/>
<path d="M54.2984 17.5156H26.4609C25.7937 17.5156 25.2531 16.975 25.2531 16.3078V6.08433C25.2531 3.79995 27.1109 1.94214 29.3953 1.94214H51.3641C53.6469 1.94214 55.5047 3.79995 55.5047 6.08433V16.3078C55.5062 16.975 54.9656 17.5156 54.2984 17.5156ZM27.6687 15.1015H53.0906V6.08433C53.0906 5.13276 52.3172 4.35776 51.3641 4.35776H29.3953C28.4437 4.35776 27.6687 5.13276 27.6687 6.08433V15.1015Z" fill="#CAB57B"/>
</svg>
