<svg width="80" height="80" viewBox="0 0 80 80" fill="none" xmlns="http://www.w3.org/2000/svg">
<path d="M48.9375 28.6406H30.0625C30.0625 28.6406 30.0625 28.6406 30.0469 28.6406H27.1875C25.2031 28.6406 23.5938 30.25 23.5938 32.2344V45.2812C23.5938 47.2656 25.2031 48.875 27.1875 48.875H30.0469H48.9375H51.7969C53.7812 48.875 55.3906 47.2656 55.3906 45.2812V32.2344C55.3906 30.25 53.7812 28.6406 51.7969 28.6406H48.9375ZM53.0469 35.8125V41.6875C50.3438 41.8125 48.1406 43.875 47.7969 46.5156H31.1875C30.8438 43.875 28.6406 41.8125 25.9375 41.6875V35.8125C28.6406 35.6875 30.8438 33.625 31.1875 30.9844H47.7969C48.1406 33.625 50.3438 35.6875 53.0469 35.8125ZM27.1875 30.9844H28.8125C28.5 32.3281 27.3438 33.3437 25.9375 33.4687V32.2344C25.9375 31.5469 26.5 30.9844 27.1875 30.9844ZM25.9375 45.2656V44.0312C27.3438 44.1406 28.5 45.1719 28.8125 46.5156H27.1875C26.5 46.5156 25.9375 45.9531 25.9375 45.2656ZM51.8125 46.5156H50.1875C50.5 45.1719 51.6562 44.1562 53.0625 44.0312V45.2656C53.0469 45.9531 52.5 46.5156 51.8125 46.5156ZM53.0469 32.2187V33.4531C51.6406 33.3438 50.4844 32.3125 50.1719 30.9687H51.7969C52.5 30.9844 53.0469 31.5469 53.0469 32.2187Z" fill="white"/>
<path d="M39.5 43.8594C42.3125 43.8594 44.6094 41.5625 44.6094 38.75C44.6094 35.9375 42.3125 33.6406 39.5 33.6406C36.6875 33.6406 34.3906 35.9375 34.3906 38.75C34.3906 41.5625 36.6719 43.8594 39.5 43.8594ZM39.5 35.9844C41.0312 35.9844 42.2656 37.2187 42.2656 38.75C42.2656 40.2812 41.0312 41.5156 39.5 41.5156C37.9687 41.5156 36.7344 40.2812 36.7344 38.75C36.7344 37.2187 37.9687 35.9844 39.5 35.9844Z" fill="white"/>
<path d="M40.0156 66.2815C47.0312 66.2815 53.625 63.5472 58.5938 58.5784C63.2031 53.969 65.9219 47.844 66.25 41.3284C66.2812 40.6878 65.7812 40.1253 65.1406 40.094C64.5 40.0628 63.9375 40.5628 63.9062 41.2034C63.6094 47.1253 61.125 52.7034 56.9219 56.9065C52.4062 61.4222 46.3906 63.9222 40 63.9222C33.6094 63.9222 27.5937 61.4378 23.0781 56.9065C13.75 47.5784 13.75 32.3909 23.0781 23.0628C31.0312 15.1097 43.4062 13.7815 52.8125 19.7659L50.1719 23.0003L57.75 22.2347L56.9844 14.6565L54.3125 17.9378C43.9531 11.1878 30.2188 12.6097 21.4219 21.4065C11.1719 31.6565 11.1719 48.3128 21.4219 58.5628C26.4062 63.5472 33 66.2815 40.0156 66.2815Z" fill="white"/>
</svg>
