<svg width="80" height="80" viewBox="0 0 80 80" fill="none" xmlns="http://www.w3.org/2000/svg">
<path d="M57.6562 44.5312C57.3438 44.5312 57.0469 44.6563 56.8281 44.875C56.6094 45.0938 56.4844 45.3906 56.4844 45.7031C56.4844 46.0156 56.6094 46.3125 56.8281 46.5312C57.0469 46.75 57.3438 46.875 57.6562 46.875C57.9688 46.875 58.2656 46.75 58.4844 46.5312C58.7031 46.3125 58.8281 46.0156 58.8281 45.7031C58.8281 45.3906 58.7031 45.0938 58.4844 44.875C58.2656 44.6563 57.9531 44.5312 57.6562 44.5312Z" fill="white"/>
<path d="M64.3906 40.4844H61.4375V28.1719C61.4375 27.5313 60.9062 27 60.2656 27H54.4375V18.8906C54.4375 18.25 53.9062 17.7188 53.2656 17.7188H37.5312V16.2812C37.5312 15.6406 37 15.1094 36.3594 15.1094H19.4375C18.7969 15.1094 18.2656 15.6406 18.2656 16.2812V27H14.3125C13.6719 27 13.1406 27.5313 13.1406 28.1719V63.7344C13.1406 64.375 13.6719 64.9062 14.3125 64.9062H60.2812C60.9219 64.9062 61.4531 64.375 61.4531 63.7344V51.4219H64.4062C65.7656 51.4219 66.875 50.3125 66.875 48.9531V42.9688C66.8594 41.5938 65.75 40.4844 64.3906 40.4844ZM52.0938 20.0625V27H49.8281V24.2188C49.8281 23.5781 49.2812 23.0469 48.6406 23.0469C48.4531 23.0469 48.3125 22.9063 48.2969 22.7344C48.2344 22.1406 47.7344 21.6719 47.125 21.6719H42.3438C41.75 21.6719 41.2344 22.125 41.1719 22.7187C41.1562 22.9062 41 23.0312 40.8281 23.0312H40.8125C40.1719 23.0312 39.6406 23.5625 39.6406 24.2031V26.9844H37.5312V20.0469H52.0938V20.0625ZM41.9844 27V25.125C42.4844 24.8906 42.9062 24.5 43.1875 24.0156H46.2969C46.5625 24.5 46.9844 24.8906 47.4844 25.125V27H41.9844ZM20.6094 17.4375H35.1719V18.875V26.9844H32.9063V21.5781C32.9063 21.2656 32.7812 20.9531 32.5469 20.7344C32.3281 20.5156 32.0156 20.3906 31.7031 20.4063C31.5312 20.4063 31.3906 20.2656 31.3594 20.0938C31.2969 19.5 30.7969 19.0469 30.1875 19.0469H25.4063C24.8125 19.0469 24.2969 19.5 24.2344 20.0938C24.2188 20.2656 24.0781 20.4063 23.8906 20.4063C23.5781 20.3906 23.2656 20.5156 23.0469 20.7344C22.8125 20.9531 22.6875 21.2656 22.6875 21.5781V26.9844H20.5781V17.4375H20.6094ZM25.0625 27V22.5156C25.5625 22.2813 25.9844 21.8906 26.2656 21.4063H29.375C29.6406 21.8906 30.0625 22.2813 30.5625 22.5156V27H25.0625ZM59.0938 55.4375H56.4062C55.6562 55.4375 55.0469 56.0625 55.0469 56.8437C55.0469 57.625 55.6562 58.25 56.4062 58.25H59.0938V62.5781H15.4844V58.25H18.1719C18.9219 58.25 19.5312 57.625 19.5312 56.8437C19.5312 56.0625 18.9219 55.4375 18.1719 55.4375H15.4844V36.4688H18.1719C18.9219 36.4688 19.5312 35.8438 19.5312 35.0625C19.5312 34.2812 18.9219 33.6562 18.1719 33.6562H15.4844V29.3281H19.4531H36.3594H59.1094V33.6562H56.4219C55.6719 33.6562 55.0625 34.2812 55.0625 35.0625C55.0625 35.8438 55.6719 36.4688 56.4219 36.4688H59.1094V40.4844H55.0469C53.6875 40.4844 52.5781 41.5938 52.5781 42.9531V48.9375C52.5781 50.2969 53.6875 51.4062 55.0469 51.4062H59.1094V55.4375H59.0938ZM64.5156 48.9375C64.5156 49.0156 64.4531 49.0625 64.3906 49.0625H60.2812H60.2656H60.25H55.0312C54.9531 49.0625 54.9062 49 54.9062 48.9375V42.9531C54.9062 42.875 54.9688 42.8281 55.0312 42.8281H64.3906C64.4688 42.8281 64.5156 42.8906 64.5156 42.9531V48.9375Z" fill="white"/>
<path d="M29.0937 33.6562H23.625C22.875 33.6562 22.2656 34.2812 22.2656 35.0625C22.2656 35.8438 22.875 36.4688 23.625 36.4688H29.0937C29.8437 36.4688 30.4531 35.8438 30.4531 35.0625C30.4531 34.2969 29.8437 33.6562 29.0937 33.6562Z" fill="white"/>
<path d="M40.0156 33.6562H34.5469C33.7969 33.6562 33.1875 34.2812 33.1875 35.0625C33.1875 35.8438 33.7969 36.4688 34.5469 36.4688H40.0156C40.7656 36.4688 41.375 35.8438 41.375 35.0625C41.375 34.2969 40.7656 33.6562 40.0156 33.6562Z" fill="white"/>
<path d="M50.9531 33.6562H45.4844C44.7344 33.6562 44.125 34.2812 44.125 35.0625C44.125 35.8438 44.7344 36.4688 45.4844 36.4688H50.9531C51.7031 36.4688 52.3125 35.8438 52.3125 35.0625C52.3125 34.2969 51.7031 33.6562 50.9531 33.6562Z" fill="white"/>
<path d="M40.0156 55.4375H34.5469C33.7969 55.4375 33.1875 56.0625 33.1875 56.8438C33.1875 57.625 33.7969 58.25 34.5469 58.25H40.0156C40.7656 58.25 41.375 57.625 41.375 56.8438C41.375 56.0625 40.7656 55.4375 40.0156 55.4375Z" fill="white"/>
<path d="M50.9531 55.4375H45.4844C44.7344 55.4375 44.125 56.0625 44.125 56.8438C44.125 57.625 44.7344 58.25 45.4844 58.25H50.9531C51.7031 58.25 52.3125 57.625 52.3125 56.8438C52.3125 56.0625 51.7031 55.4375 50.9531 55.4375Z" fill="white"/>
<path d="M29.0937 55.4375H23.625C22.875 55.4375 22.2656 56.0625 22.2656 56.8438C22.2656 57.625 22.875 58.25 23.625 58.25H29.0937C29.8437 58.25 30.4531 57.625 30.4531 56.8438C30.4531 56.0625 29.8437 55.4375 29.0937 55.4375Z" fill="white"/>
</svg>
