<svg width="80" height="80" viewBox="0 0 80 80" fill="none" xmlns="http://www.w3.org/2000/svg">
<path d="M40.1 45.3563C39.9625 45.3563 39.825 45.3328 39.6938 45.286C38.3078 44.7906 26.1344 40.2578 25.5906 33.775L23.6375 18.9938C23.3609 15.7219 24.5125 12.5375 26.8734 9.9719C30.0203 6.55002 34.8422 4.58752 40.1016 4.58752C45.3609 4.58752 50.1828 6.55002 53.3297 9.9719C55.6891 12.5391 56.8406 15.7235 56.5703 18.9375L54.375 33.9813C53.8391 40.3938 41.8672 44.8063 40.5031 45.2891C40.3719 45.3344 40.2359 45.3563 40.1 45.3563ZM40.1 7.00159C35.5813 7.00159 31.3 8.72346 28.65 11.6047C26.725 13.6985 25.8219 16.1641 26.0359 18.7328L27.9891 33.5141C28.3344 37.611 36.4922 41.5032 40.1016 42.8625C43.6453 41.5375 51.6375 37.7344 51.9766 33.7047L54.1719 18.6594C54.3781 16.1625 53.475 13.6985 51.55 11.6047C48.9 8.72346 44.6188 7.00159 40.1 7.00159Z" fill="#CAB57B"/>
<path d="M25.2469 19.1859C24.9844 19.1859 24.7203 19.1016 24.4984 18.9234C23.9766 18.5094 23.8875 17.7516 24.3016 17.2297C24.3281 17.1984 24.9297 16.4406 25.9781 15.4203C30.7969 10.7281 38.8531 10.6125 44.3156 15.1609C45.4375 16.0922 45.9984 16.0203 54.3516 13.8563L54.975 16.1891C46.25 18.4531 44.9109 18.7984 42.7719 17.0172C38.2453 13.2484 31.6094 13.3094 27.6625 17.1516C26.7344 18.0531 26.2 18.7234 26.1953 18.7297C25.9562 19.0297 25.6031 19.1859 25.2469 19.1859Z" fill="#CAB57B"/>
<path d="M57.3735 32.6453C57.1094 32.6453 56.8438 32.5594 56.6219 32.3813C56.1016 31.9656 56.0156 31.2078 56.4313 30.6875C56.4672 30.6422 56.8031 30.225 57.3844 29.6578C60.1969 26.9219 64.8875 26.8453 68.0625 29.4875C68.45 29.8078 68.4922 29.8438 72.825 28.7172C73.4688 28.5438 74.1297 28.9375 74.2969 29.5828C74.4641 30.2281 74.0781 30.8875 73.4313 31.0547C68.6344 32.3016 67.8985 32.4906 66.5188 31.3438C64.2813 29.4813 61.0094 29.4985 59.0703 31.3875C58.611 31.836 58.3422 32.1672 58.3203 32.1922C58.0797 32.4891 57.7281 32.6453 57.3735 32.6453Z" fill="#CAB57B"/>
<path d="M22.5 32.6453C22.1453 32.6453 21.7937 32.4891 21.5562 32.1922C21.5344 32.1656 21.2656 31.8344 20.8047 31.3859C18.8672 29.5 15.5969 29.4812 13.3578 31.3437C11.9797 32.4922 11.2406 32.3 6.44531 31.0547C5.79844 30.8875 5.4125 30.2281 5.57969 29.5828C5.74844 28.9359 6.40625 28.5422 7.05156 28.7172C11.3875 29.8422 11.4344 29.8016 11.8125 29.4875C14.9875 26.8453 19.6781 26.9187 22.4891 29.6562C23.0719 30.225 23.4062 30.6422 23.4422 30.6875C23.8578 31.2094 23.7719 31.9672 23.2516 32.3812C23.0297 32.5594 22.7641 32.6453 22.5 32.6453Z" fill="#CAB57B"/>
<path d="M31.15 24.2157C30.9828 24.2157 30.8141 24.1797 30.6547 24.1063C30.0672 23.8297 29.7922 23.1672 30.0422 22.5688C30.5297 21.411 32.4781 19.6188 36.3609 21.1344C36.9828 21.3766 37.2906 22.075 37.0484 22.6969C36.8078 23.3188 36.1047 23.6266 35.4859 23.3844C32.9422 22.3969 32.3125 23.4266 32.25 23.5469C32.0328 23.9641 31.5969 24.2157 31.15 24.2157Z" fill="#CAB57B"/>
<path d="M48.4375 24.2454C47.9781 24.2454 47.5406 23.9813 47.3391 23.5407C47.2625 23.3985 46.6172 22.4095 44.1063 23.3845C43.4875 23.6282 42.7844 23.3188 42.5438 22.697C42.3016 22.0751 42.6094 21.3766 43.2313 21.1345C47.1141 19.6235 49.0625 21.4126 49.55 22.5688C49.8078 23.1829 49.5203 23.8923 48.9063 24.1516C48.7531 24.2141 48.5938 24.2454 48.4375 24.2454Z" fill="#CAB57B"/>
<path d="M40.1 75.4125C39.9188 75.4125 39.7359 75.3719 39.5641 75.2875C39.0531 75.0344 38.7891 74.4578 38.9313 73.9062L45.9906 46.3469C46.0891 45.964 46.3672 45.6531 46.7391 45.514C49.6547 44.4312 52.05 44.439 53.8563 45.5406C56.1969 46.9672 56.5484 49.6734 56.5625 49.789C56.6219 50.2922 56.3625 50.7812 55.9094 51.0094L53.4594 52.2515L55.1953 56C55.3875 56.4125 55.3297 56.8984 55.0469 57.2562L41.0469 74.9547C40.8125 75.2515 40.4594 75.4125 40.1 75.4125ZM48.1688 47.5719L42.6813 68.9953L52.6906 56.339L50.7781 52.2078C50.5047 51.6187 50.7469 50.9172 51.3281 50.625L53.9438 49.2969C53.7297 48.7484 53.325 48.0359 52.5813 47.5906C51.5422 46.9672 50.0609 46.9609 48.1688 47.5719Z" fill="#CAB57B"/>
<path d="M40.1016 75.4125C39.6766 75.4125 39.2656 75.1891 39.0453 74.7922C38.7203 74.2094 38.9313 73.4734 39.5141 73.15L64.3344 59.3422C64.3547 55.5297 63.3219 52.5703 61.2563 50.5406C57.8141 47.1578 52.5578 47.4047 52.5031 47.4031C51.8469 47.4484 51.2688 46.9297 51.2328 46.2656C51.1953 45.6 51.7016 45.0313 52.3672 44.9938C52.6219 44.9766 58.7172 44.6766 62.9313 48.8016C65.6328 51.4453 66.9109 55.2469 66.7328 60.1063C66.7172 60.5281 66.4828 60.9109 66.1141 61.1172L40.6875 75.2609C40.5016 75.3641 40.3 75.4125 40.1016 75.4125Z" fill="#CAB57B"/>
<path d="M40.1 75.4125C39.7406 75.4125 39.3875 75.2516 39.1531 74.9531L25.1547 57.2531C24.8719 56.8953 24.8141 56.4094 25.0062 55.9969L26.7406 52.2485L24.2906 51.0063C23.8375 50.7781 23.5766 50.2891 23.6375 49.786C23.6516 49.6703 24.0031 46.9641 26.3437 45.5375C28.1531 44.4344 30.55 44.4281 33.4625 45.511C33.8344 45.6485 34.1141 45.961 34.2109 46.3438L41.2703 73.9063C41.4125 74.4578 41.1484 75.0344 40.6375 75.2875C40.464 75.3719 40.2812 75.4125 40.1 75.4125ZM27.5094 56.3391L37.5187 68.9953L32.0312 47.5719C30.1406 46.9625 28.6578 46.9672 27.6172 47.5906C26.875 48.036 26.4703 48.7485 26.2547 49.2969L28.8703 50.625C29.45 50.9188 29.6937 51.6188 29.4203 52.2078L27.5094 56.3391Z" fill="#CAB57B"/>
<path d="M40.0984 75.4125C39.9 75.4125 39.6984 75.364 39.5125 75.2609L14.0859 61.1156C13.7172 60.9109 13.4828 60.5265 13.4672 60.1047C13.2828 55.0953 14.5656 51.214 17.2797 48.5703C21.2609 44.689 26.8156 44.9875 27.0562 45C27.7219 45.0406 28.2266 45.614 28.1859 46.2812C28.1437 46.9453 27.5641 47.4375 26.9078 47.4109C26.8156 47.4125 22.1328 47.1968 18.95 50.3156C16.8719 52.35 15.8375 55.3859 15.8672 59.3422L40.6891 73.1515C41.2719 73.4765 41.4812 74.2109 41.1578 74.7937C40.9344 75.189 40.5234 75.4125 40.0984 75.4125Z" fill="#CAB57B"/>
<path d="M46.5547 47.886C45.2172 47.886 44.2797 47.4454 43.7594 46.5719C42.5938 44.6157 44.4578 41.6063 45.0578 40.7297C45.4328 40.1782 46.1844 40.0391 46.7344 40.4157C47.2844 40.7907 47.4266 41.5422 47.0516 42.0922C46.1453 43.4219 45.625 44.9875 45.8328 45.3375C45.8344 45.3391 46.0609 45.5469 47.0344 45.4454C47.7047 45.386 48.2922 45.8594 48.3609 46.5219C48.4297 47.186 47.9469 47.7782 47.2844 47.8485C47.0281 47.8735 46.7859 47.886 46.5547 47.886Z" fill="#CAB57B"/>
<path d="M33.6562 47.886C33.425 47.886 33.1828 47.8735 32.9266 47.8469C32.2641 47.7766 31.7812 47.1844 31.85 46.5203C31.9203 45.8578 32.5 45.3813 33.1766 45.4438C34.15 45.5469 34.375 45.336 34.3766 45.336C34.5859 44.9875 34.0641 43.4219 33.1578 42.0906C32.7828 41.5406 32.925 40.7891 33.475 40.4141C34.025 40.0375 34.775 40.1766 35.1516 40.7281C35.75 41.6047 37.6156 44.6141 36.4516 46.5703C35.9312 47.4453 34.9922 47.886 33.6562 47.886Z" fill="#CAB57B"/>
<path d="M65.3469 46.2125C65.2094 46.2125 65.0719 46.189 64.9406 46.1422C63.7016 45.6984 57.5031 43.3031 57.1937 39.6359L56.1766 31.9422C56.0156 30.0422 56.6703 28.2234 58.0141 26.7625C59.7656 24.8578 62.4391 23.764 65.3469 23.764C68.2562 23.764 70.9281 24.8578 72.6812 26.764C74.025 28.225 74.6797 30.0437 74.5234 31.8859L73.3734 39.7781C73.0734 43.375 66.9687 45.7125 65.7484 46.1422C65.6187 46.189 65.4828 46.2125 65.3469 46.2125ZM65.3469 26.1781C63.1453 26.1781 61.0687 27.0062 59.7906 28.3953C59.1687 29.0734 58.4516 30.1937 58.575 31.6828L59.5922 39.375C59.7234 40.9094 62.9625 42.7859 65.3484 43.7156C67.6828 42.8125 70.8516 40.9797 70.9766 39.5015L72.1266 31.6094C72.2437 30.1937 71.5266 29.075 70.9031 28.3969C69.625 27.0078 67.55 26.1781 65.3469 26.1781Z" fill="#CAB57B"/>
<path d="M61.1922 35.9031C61.036 35.9031 60.8766 35.8719 60.7235 35.8094C60.1094 35.55 59.8219 34.8406 60.0797 34.2265C60.3906 33.4922 61.5719 32.3328 63.8344 33.2094C64.4563 33.4515 64.7641 34.15 64.5235 34.7719C64.2813 35.3937 63.5781 35.7015 62.961 35.4609C62.5547 35.3031 62.3156 35.2969 62.2266 35.3172C62.0063 35.6859 61.6078 35.9031 61.1922 35.9031Z" fill="#CAB57B"/>
<path d="M69.186 35.9031C68.7703 35.9031 68.3719 35.6859 68.15 35.3172C68.0594 35.2969 67.8219 35.3031 67.4156 35.4609C66.7969 35.6984 66.0953 35.3922 65.8531 34.7719C65.6125 34.15 65.9203 33.4515 66.5422 33.2094C68.8078 32.3328 69.9844 33.4922 70.2969 34.2265C70.5547 34.8406 70.2672 35.55 69.6531 35.8094C69.5016 35.8719 69.3422 35.9031 69.186 35.9031ZM68.0735 35.164C68.075 35.1656 68.075 35.1656 68.075 35.1672C68.0735 35.1656 68.0735 35.1656 68.0735 35.164Z" fill="#CAB57B"/>
<path d="M65.3469 61.9125C65.1657 61.9125 64.9828 61.8719 64.811 61.7875C64.3 61.5344 64.036 60.9578 64.1781 60.4063L67.8656 46.011C67.9641 45.6281 68.2422 45.3172 68.6141 45.1782C71.5625 44.0797 73.061 45.2188 73.6953 45.9938C74.3625 46.8078 74.4985 47.711 74.5188 47.8844C74.5782 48.3875 74.3188 48.875 73.8656 49.1032L73.0828 49.5L73.7547 50.9531C73.9453 51.3656 73.8891 51.8516 73.6063 52.2094L66.2953 61.4547C66.0594 61.75 65.7063 61.9125 65.3469 61.9125ZM70.0391 47.2547L67.9281 55.4953L71.25 51.2938L70.4016 49.4578C70.1282 48.8688 70.3703 48.1672 70.9516 47.875L71.7688 47.4594C71.3719 47.0547 70.6844 47.0891 70.0391 47.2547Z" fill="#CAB57B"/>
<path d="M65.3485 61.9126C64.9235 61.9126 64.5125 61.6891 64.2922 61.2922C63.9672 60.7094 64.1781 59.9735 64.761 59.6501L77.4266 52.6047C77.3797 50.9188 76.8985 49.6188 75.9891 48.7344C74.4156 47.2047 71.9797 47.3172 71.9625 47.3172C71.2625 47.3376 70.7219 46.8547 70.6797 46.1907C70.6375 45.5251 71.1422 44.9501 71.8063 44.9079C71.95 44.9001 75.3156 44.7094 77.6735 47.0047C79.2078 48.4985 79.9344 50.6376 79.8344 53.3626C79.8188 53.7844 79.5844 54.1672 79.2156 54.3735L65.9344 61.761C65.7485 61.8641 65.5469 61.9126 65.3485 61.9126Z" fill="#CAB57B"/>
<path d="M68.7219 47.5329C67.5922 47.5344 67.0359 47.0219 66.7641 46.5641C66.0016 45.2844 66.9969 43.5704 67.4625 42.8922C67.8375 42.3422 68.5891 42.2 69.1406 42.5782C69.6906 42.9547 69.8313 43.7047 69.4563 44.2532C69.2813 44.5141 69.1125 44.8375 69.0078 45.1016C69.6531 45.1063 70.1703 45.5547 70.2359 46.1844C70.3047 46.8485 69.8219 47.4407 69.1594 47.511C69.0047 47.5266 68.8578 47.5329 68.7219 47.5329Z" fill="#CAB57B"/>
<path d="M61.9531 47.5328C61.8156 47.5328 61.6703 47.525 61.5156 47.5109C60.8531 47.4406 60.3703 46.8484 60.4391 46.1844C60.5047 45.5641 61.0281 45.1016 61.6391 45.1016C61.6485 45.1016 61.6578 45.1016 61.6688 45.1016C61.5641 44.8391 61.3969 44.5141 61.2188 44.2531C60.8469 43.7016 60.9891 42.9516 61.5391 42.5766C62.0891 42.2 62.8391 42.3438 63.2141 42.8922C63.6781 43.5703 64.6735 45.2859 63.9125 46.5641C63.6406 47.0219 63.0828 47.5328 61.9531 47.5328Z" fill="#CAB57B"/>
<path d="M57.7234 48.2359C57.5094 48.2359 57.2922 48.1797 57.0953 48.0593C56.5266 47.7109 56.3469 46.9687 56.6938 46.3984C56.7766 46.264 56.8719 46.1265 56.9813 45.9922C57.6125 45.2156 59.1156 44.0797 62.0609 45.1765C62.6859 45.4093 63.0047 46.1047 62.7719 46.7297C62.5391 47.3562 61.8438 47.6734 61.2188 47.4406C60.4141 47.1406 59.3484 46.9093 58.8516 47.5203C58.8156 47.5656 58.7828 47.6109 58.7547 47.6578C58.5281 48.0312 58.1313 48.2359 57.7234 48.2359Z" fill="#CAB57B"/>
<path d="M14.6531 45.5688C14.5172 45.5688 14.3813 45.5469 14.2516 45.5C13.0313 45.0688 6.92657 42.7297 6.61875 39.0594L5.48594 31.3125C5.32188 29.3985 5.97657 27.5797 7.31875 26.1188C9.07188 24.2125 11.7453 23.1188 14.6531 23.1188C17.5609 23.1188 20.2344 24.2125 21.9859 26.1172C23.3297 27.5781 23.9844 29.3969 23.8297 31.2391L22.7984 39.0453C22.4984 42.6563 16.2984 45.0531 15.0594 45.4969C14.9281 45.5453 14.7906 45.5688 14.6531 45.5688ZM14.6531 25.5344C12.45 25.5344 10.3734 26.3641 9.09532 27.7531C8.47344 28.4313 7.75625 29.55 7.88125 31.0375L9.01407 38.7844C9.14688 40.3313 12.3141 42.1703 14.65 43.0735C17.0359 42.1438 20.275 40.2703 20.4 38.7891L21.4313 30.9828C21.5484 29.5531 20.8328 28.4328 20.2094 27.7547C18.9328 26.3641 16.8547 25.5344 14.6531 25.5344Z" fill="#CAB57B"/>
<path d="M18.8078 36.3047C18.3922 36.3047 17.9937 36.0875 17.7719 35.7172C17.6875 35.7047 17.4484 35.7047 17.0391 35.8609C16.4203 36.1062 15.7187 35.7953 15.4766 35.1734C15.2344 34.5515 15.5422 33.8531 16.1641 33.6109C18.4281 32.7312 19.6109 33.8906 19.9203 34.6281C20.1781 35.2422 19.8906 35.95 19.275 36.2094C19.125 36.2734 18.9656 36.3047 18.8078 36.3047ZM17.6953 35.5656C17.6969 35.5687 17.6984 35.5687 17.6984 35.5719C17.6969 35.5687 17.6969 35.5672 17.6953 35.5656Z" fill="#CAB57B"/>
<path d="M10.8141 36.3047C10.6578 36.3047 10.4984 36.2734 10.3453 36.2109C9.7297 35.9516 9.4422 35.2438 9.70001 34.6297C10.0094 33.8922 11.1953 32.7328 13.4563 33.6125C14.0781 33.8547 14.3859 34.5531 14.1438 35.175C13.9016 35.7969 13.2 36.1047 12.5813 35.8625C12.1734 35.7047 11.9313 35.7016 11.8484 35.7188C11.6281 36.0875 11.2297 36.3047 10.8141 36.3047ZM11.9266 35.5656C11.925 35.5688 11.9234 35.5688 11.9234 35.5719C11.925 35.5688 11.9266 35.5672 11.9266 35.5656Z" fill="#CAB57B"/>
<path d="M14.6531 61.2672C14.2938 61.2672 13.9406 61.1062 13.7063 60.8078L6.39533 51.564C6.11252 51.2062 6.05471 50.7203 6.24689 50.3078L6.91877 48.8547L6.13439 48.4578C5.68127 48.2297 5.42033 47.7406 5.48127 47.2359C5.50314 47.064 5.64064 46.1625 6.30783 45.3453C6.93908 44.5703 8.43439 43.4359 11.3875 44.5312C11.7578 44.6687 12.0391 44.9812 12.136 45.364L15.8235 59.7594C15.9656 60.3109 15.7016 60.8875 15.1906 61.1406C15.0172 61.2265 14.8344 61.2672 14.6531 61.2672ZM8.75002 50.65L12.0735 54.8515L9.96408 46.6125C9.31096 46.4437 8.62658 46.4109 8.23127 46.8172L9.05002 47.2328C9.62971 47.5265 9.87346 48.2265 9.60002 48.8156L8.75002 50.65Z" fill="#CAB57B"/>
<path d="M14.6516 61.2672C14.4531 61.2672 14.2516 61.2188 14.0656 61.1157L0.784383 53.7282C0.415633 53.5235 0.181258 53.1391 0.165633 52.7172C0.0656331 49.9922 0.792196 47.8532 2.32657 46.361C4.68282 44.0672 8.05626 44.2563 8.19063 44.2641C8.85626 44.3063 9.36095 44.8813 9.31876 45.5453C9.27657 46.211 8.68595 46.6875 8.0422 46.6735C8.0172 46.6766 5.57032 46.561 3.99688 48.1047C3.09688 48.9875 2.62032 50.2828 2.57345 51.961L15.2391 59.0063C15.8219 59.3313 16.0313 60.0657 15.7078 60.6485C15.4875 61.0438 15.0766 61.2672 14.6516 61.2672Z" fill="#CAB57B"/>
<path d="M11.2781 46.8875C11.1406 46.8875 10.9953 46.8797 10.8406 46.8656C10.1781 46.7953 9.69531 46.2031 9.76406 45.539C9.82968 44.9093 10.3375 44.4797 10.9922 44.4562C10.8812 44.1797 10.7047 43.8422 10.5469 43.6109C10.1703 43.0609 10.3109 42.3093 10.8609 41.9328C11.4141 41.5562 12.1641 41.6984 12.5391 42.2468C13.0031 42.925 14 44.639 13.2375 45.9187C12.9641 46.3781 12.4078 46.8875 11.2781 46.8875Z" fill="#CAB57B"/>
<path d="M18.0469 46.8875C16.9172 46.889 16.3594 46.3765 16.0875 45.9187C15.3266 44.639 16.3219 42.925 16.7859 42.2468C17.1625 41.6968 17.9125 41.5547 18.4641 41.9328C19.0141 42.3093 19.1547 43.0593 18.7797 43.6078C18.6047 43.8687 18.4359 44.1922 18.3313 44.4562C18.95 44.4859 19.4953 44.9093 19.5609 45.539C19.6297 46.2031 19.1469 46.7953 18.4844 46.8656C18.3297 46.8812 18.1828 46.8875 18.0469 46.8875Z" fill="#CAB57B"/>
<path d="M22.4438 48.0859C21.9422 48.0859 21.4719 47.7703 21.3016 47.2687L21.1828 46.9187C21.1703 46.9031 21.1609 46.889 21.1484 46.8734C20.6516 46.2656 19.5875 46.4969 18.7813 46.7953C18.1563 47.0281 17.4609 46.7094 17.2281 46.0844C16.9953 45.4594 17.3141 44.764 17.9391 44.5312C20.8875 43.4375 22.3859 44.5719 23.0188 45.3453C23.1297 45.4828 23.2266 45.6219 23.3094 45.7609C23.3547 45.8344 23.3906 45.9125 23.4172 45.9937L23.5859 46.4875C23.8016 47.1187 23.4641 47.8047 22.8344 48.0203C22.7047 48.0656 22.5734 48.0859 22.4438 48.0859Z" fill="#CAB57B"/>
</svg>
