<svg width="128" height="128" viewBox="0 0 128 128" fill="none" xmlns="http://www.w3.org/2000/svg">
<g clip-path="url(#clip0_412_1922)">
<path d="M128 0H0V128H128V0Z" fill="white"/>
<mask id="mask0_412_1922" style="mask-type:luminance" maskUnits="userSpaceOnUse" x="1" y="1" width="126" height="126">
<path d="M6.59201 41.5352H1.60001V46.5272H6.59201V41.5352Z" fill="white"/>
<path d="M6.59201 51.5195H1.60001V56.5115H6.59201V51.5195Z" fill="white"/>
<path d="M6.59201 56.5117H1.60001V61.5037H6.59201V56.5117Z" fill="white"/>
<path d="M6.59201 61.5039H1.60001V66.4959H6.59201V61.5039Z" fill="white"/>
<path d="M6.59201 71.4873H1.60001V76.4793H6.59201V71.4873Z" fill="white"/>
<path d="M11.584 51.5195H6.59201V56.5115H11.584V51.5195Z" fill="white"/>
<path d="M11.584 56.5117H6.59201V61.5037H11.584V56.5117Z" fill="white"/>
<path d="M11.584 61.5039H6.59201V66.4959H11.584V61.5039Z" fill="white"/>
<path d="M11.584 66.4961H6.59201V71.4881H11.584V66.4961Z" fill="white"/>
<path d="M11.584 76.4795H6.59201V81.4715H11.584V76.4795Z" fill="white"/>
<path d="M11.584 81.4717H6.59201V86.4637H11.584V81.4717Z" fill="white"/>
<path d="M16.576 41.5352H11.584V46.5272H16.576V41.5352Z" fill="white"/>
<path d="M16.576 56.5117H11.584V61.5037H16.576V56.5117Z" fill="white"/>
<path d="M16.576 81.4717H11.584V86.4637H16.576V81.4717Z" fill="white"/>
<path d="M21.568 41.5352H16.576V46.5272H21.568V41.5352Z" fill="white"/>
<path d="M21.568 46.5273H16.576V51.5193H21.568V46.5273Z" fill="white"/>
<path d="M21.568 61.5039H16.576V66.4959H21.568V61.5039Z" fill="white"/>
<path d="M21.568 66.4961H16.576V71.4881H21.568V66.4961Z" fill="white"/>
<path d="M21.568 71.4873H16.576V76.4793H21.568V71.4873Z" fill="white"/>
<path d="M21.568 76.4795H16.576V81.4715H21.568V76.4795Z" fill="white"/>
<path d="M21.568 81.4717H16.576V86.4637H21.568V81.4717Z" fill="white"/>
<path d="M26.56 51.5195H21.568V56.5115H26.56V51.5195Z" fill="white"/>
<path d="M26.56 66.4961H21.568V71.4881H26.56V66.4961Z" fill="white"/>
<path d="M26.56 76.4795H21.568V81.4715H26.56V76.4795Z" fill="white"/>
<path d="M31.552 41.5352H26.56V46.5272H31.552V41.5352Z" fill="white"/>
<path d="M31.552 61.5039H26.56V66.4959H31.552V61.5039Z" fill="white"/>
<path d="M31.552 66.4961H26.56V71.4881H31.552V66.4961Z" fill="white"/>
<path d="M31.552 76.4795H26.56V81.4715H31.552V76.4795Z" fill="white"/>
<path d="M36.544 41.5352H31.552V46.5272H36.544V41.5352Z" fill="white"/>
<path d="M36.544 51.5195H31.552V56.5115H36.544V51.5195Z" fill="white"/>
<path d="M36.544 61.5039H31.552V66.4959H36.544V61.5039Z" fill="white"/>
<path d="M36.544 71.4873H31.552V76.4793H36.544V71.4873Z" fill="white"/>
<path d="M36.544 81.4717H31.552V86.4637H36.544V81.4717Z" fill="white"/>
<path d="M41.536 41.5352H36.544V46.5272H41.536V41.5352Z" fill="white"/>
<path d="M41.536 51.5195H36.544V56.5115H41.536V51.5195Z" fill="white"/>
<path d="M41.536 76.4795H36.544V81.4715H41.536V76.4795Z" fill="white"/>
<path d="M41.536 81.4717H36.544V86.4637H41.536V81.4717Z" fill="white"/>
<path d="M46.528 6.5918H41.536V11.5838H46.528V6.5918Z" fill="white"/>
<path d="M46.528 16.5752H41.536V21.5672H46.528V16.5752Z" fill="white"/>
<path d="M46.528 26.5596H41.536V31.5516H46.528V26.5596Z" fill="white"/>
<path d="M46.528 31.5518H41.536V36.5438H46.528V31.5518Z" fill="white"/>
<path d="M46.528 36.5439H41.536V41.5359H46.528V36.5439Z" fill="white"/>
<path d="M46.528 41.5352H41.536V46.5272H46.528V41.5352Z" fill="white"/>
<path d="M46.528 61.5039H41.536V66.4959H46.528V61.5039Z" fill="white"/>
<path d="M46.528 71.4873H41.536V76.4793H46.528V71.4873Z" fill="white"/>
<path d="M46.528 86.4639H41.536V91.4559H46.528V86.4639Z" fill="white"/>
<path d="M46.528 91.4561H41.536V96.4481H46.528V91.4561Z" fill="white"/>
<path d="M46.528 96.4473H41.536V101.439H46.528V96.4473Z" fill="white"/>
<path d="M46.528 106.432H41.536V111.424H46.528V106.432Z" fill="white"/>
<path d="M46.528 111.424H41.536V116.416H46.528V111.424Z" fill="white"/>
<path d="M46.528 121.407H41.536V126.399H46.528V121.407Z" fill="white"/>
<path d="M51.52 1.59961H46.528V6.59161H51.52V1.59961Z" fill="white"/>
<path d="M51.52 16.5752H46.528V21.5672H51.52V16.5752Z" fill="white"/>
<path d="M51.52 36.5439H46.528V41.5359H51.52V36.5439Z" fill="white"/>
<path d="M51.52 41.5352H46.528V46.5272H51.52V41.5352Z" fill="white"/>
<path d="M51.52 86.4639H46.528V91.4559H51.52V86.4639Z" fill="white"/>
<path d="M51.52 91.4561H46.528V96.4481H51.52V91.4561Z" fill="white"/>
<path d="M51.52 96.4473H46.528V101.439H51.52V96.4473Z" fill="white"/>
<path d="M51.52 121.407H46.528V126.399H51.52V121.407Z" fill="white"/>
<path d="M56.512 1.59961H51.52V6.59161H56.512V1.59961Z" fill="white"/>
<path d="M56.512 6.5918H51.52V11.5838H56.512V6.5918Z" fill="white"/>
<path d="M56.512 11.584H51.52V16.576H56.512V11.584Z" fill="white"/>
<path d="M56.512 21.5674H51.52V26.5594H56.512V21.5674Z" fill="white"/>
<path d="M56.512 31.5518H51.52V36.5438H56.512V31.5518Z" fill="white"/>
<path d="M56.512 36.5439H51.52V41.5359H56.512V36.5439Z" fill="white"/>
<path d="M56.512 81.4717H51.52V86.4637H56.512V81.4717Z" fill="white"/>
<path d="M56.512 86.4639H51.52V91.4559H56.512V86.4639Z" fill="white"/>
<path d="M56.512 96.4473H51.52V101.439H56.512V96.4473Z" fill="white"/>
<path d="M56.512 101.439H51.52V106.431H56.512V101.439Z" fill="white"/>
<path d="M56.512 116.416H51.52V121.408H56.512V116.416Z" fill="white"/>
<path d="M56.512 121.407H51.52V126.399H56.512V121.407Z" fill="white"/>
<path d="M61.504 11.584H56.512V16.576H61.504V11.584Z" fill="white"/>
<path d="M61.504 16.5752H56.512V21.5672H61.504V16.5752Z" fill="white"/>
<path d="M61.504 21.5674H56.512V26.5594H61.504V21.5674Z" fill="white"/>
<path d="M61.504 91.4561H56.512V96.4481H61.504V91.4561Z" fill="white"/>
<path d="M61.504 101.439H56.512V106.431H61.504V101.439Z" fill="white"/>
<path d="M66.496 21.5674H61.504V26.5594H66.496V21.5674Z" fill="white"/>
<path d="M66.496 31.5518H61.504V36.5438H66.496V31.5518Z" fill="white"/>
<path d="M66.496 86.4639H61.504V91.4559H66.496V86.4639Z" fill="white"/>
<path d="M66.496 91.4561H61.504V96.4481H66.496V91.4561Z" fill="white"/>
<path d="M66.496 96.4473H61.504V101.439H66.496V96.4473Z" fill="white"/>
<path d="M66.496 106.432H61.504V111.424H66.496V106.432Z" fill="white"/>
<path d="M66.496 116.416H61.504V121.408H66.496V116.416Z" fill="white"/>
<path d="M66.496 121.407H61.504V126.399H66.496V121.407Z" fill="white"/>
<path d="M71.488 6.5918H66.496V11.5838H71.488V6.5918Z" fill="white"/>
<path d="M71.488 11.584H66.496V16.576H71.488V11.584Z" fill="white"/>
<path d="M71.488 16.5752H66.496V21.5672H71.488V16.5752Z" fill="white"/>
<path d="M71.488 41.5352H66.496V46.5272H71.488V41.5352Z" fill="white"/>
<path d="M71.488 81.4717H66.496V86.4637H71.488V81.4717Z" fill="white"/>
<path d="M71.488 86.4639H66.496V91.4559H71.488V86.4639Z" fill="white"/>
<path d="M71.488 91.4561H66.496V96.4481H71.488V91.4561Z" fill="white"/>
<path d="M71.488 96.4473H66.496V101.439H71.488V96.4473Z" fill="white"/>
<path d="M71.488 106.432H66.496V111.424H71.488V106.432Z" fill="white"/>
<path d="M71.488 111.424H66.496V116.416H71.488V111.424Z" fill="white"/>
<path d="M71.488 121.407H66.496V126.399H71.488V121.407Z" fill="white"/>
<path d="M76.48 1.59961H71.488V6.59161H76.48V1.59961Z" fill="white"/>
<path d="M76.48 16.5752H71.488V21.5672H76.48V16.5752Z" fill="white"/>
<path d="M76.48 21.5674H71.488V26.5594H76.48V21.5674Z" fill="white"/>
<path d="M76.48 26.5596H71.488V31.5516H76.48V26.5596Z" fill="white"/>
<path d="M76.48 31.5518H71.488V36.5438H76.48V31.5518Z" fill="white"/>
<path d="M76.48 36.5439H71.488V41.5359H76.48V36.5439Z" fill="white"/>
<path d="M76.48 41.5352H71.488V46.5272H76.48V41.5352Z" fill="white"/>
<path d="M76.48 96.4473H71.488V101.439H76.48V96.4473Z" fill="white"/>
<path d="M76.48 101.439H71.488V106.431H76.48V101.439Z" fill="white"/>
<path d="M76.48 111.424H71.488V116.416H76.48V111.424Z" fill="white"/>
<path d="M76.48 121.407H71.488V126.399H76.48V121.407Z" fill="white"/>
<path d="M81.472 6.5918H76.48V11.5838H81.472V6.5918Z" fill="white"/>
<path d="M81.472 36.5439H76.48V41.5359H81.472V36.5439Z" fill="white"/>
<path d="M81.472 41.5352H76.48V46.5272H81.472V41.5352Z" fill="white"/>
<path d="M81.472 101.439H76.48V106.431H81.472V101.439Z" fill="white"/>
<path d="M81.472 116.416H76.48V121.408H81.472V116.416Z" fill="white"/>
<path d="M86.464 1.59961H81.472V6.59161H86.464V1.59961Z" fill="white"/>
<path d="M86.464 6.5918H81.472V11.5838H86.464V6.5918Z" fill="white"/>
<path d="M86.464 16.5752H81.472V21.5672H86.464V16.5752Z" fill="white"/>
<path d="M86.464 21.5674H81.472V26.5594H86.464V21.5674Z" fill="white"/>
<path d="M86.464 26.5596H81.472V31.5516H86.464V26.5596Z" fill="white"/>
<path d="M86.464 31.5518H81.472V36.5438H86.464V31.5518Z" fill="white"/>
<path d="M86.464 36.5439H81.472V41.5359H86.464V36.5439Z" fill="white"/>
<path d="M86.464 41.5352H81.472V46.5272H86.464V41.5352Z" fill="white"/>
<path d="M86.464 46.5273H81.472V51.5193H86.464V46.5273Z" fill="white"/>
<path d="M86.464 51.5195H81.472V56.5115H86.464V51.5195Z" fill="white"/>
<path d="M86.464 56.5117H81.472V61.5037H86.464V56.5117Z" fill="white"/>
<path d="M86.464 66.4961H81.472V71.4881H86.464V66.4961Z" fill="white"/>
<path d="M86.464 81.4717H81.472V86.4637H86.464V81.4717Z" fill="white"/>
<path d="M86.464 86.4639H81.472V91.4559H86.464V86.4639Z" fill="white"/>
<path d="M86.464 91.4561H81.472V96.4481H86.464V91.4561Z" fill="white"/>
<path d="M86.464 96.4473H81.472V101.439H86.464V96.4473Z" fill="white"/>
<path d="M86.464 101.439H81.472V106.431H86.464V101.439Z" fill="white"/>
<path d="M86.464 106.432H81.472V111.424H86.464V106.432Z" fill="white"/>
<path d="M86.464 111.424H81.472V116.416H86.464V111.424Z" fill="white"/>
<path d="M91.456 41.5352H86.464V46.5272H91.456V41.5352Z" fill="white"/>
<path d="M91.456 46.5273H86.464V51.5193H91.456V46.5273Z" fill="white"/>
<path d="M91.456 51.5195H86.464V56.5115H91.456V51.5195Z" fill="white"/>
<path d="M91.456 61.5039H86.464V66.4959H91.456V61.5039Z" fill="white"/>
<path d="M91.456 71.4873H86.464V76.4793H91.456V71.4873Z" fill="white"/>
<path d="M91.456 81.4717H86.464V86.4637H91.456V81.4717Z" fill="white"/>
<path d="M91.456 101.439H86.464V106.431H91.456V101.439Z" fill="white"/>
<path d="M91.456 106.432H86.464V111.424H91.456V106.432Z" fill="white"/>
<path d="M91.456 121.407H86.464V126.399H91.456V121.407Z" fill="white"/>
<path d="M96.448 41.5352H91.456V46.5272H96.448V41.5352Z" fill="white"/>
<path d="M96.448 46.5273H91.456V51.5193H96.448V46.5273Z" fill="white"/>
<path d="M96.448 51.5195H91.456V56.5115H96.448V51.5195Z" fill="white"/>
<path d="M96.448 81.4717H91.456V86.4637H96.448V81.4717Z" fill="white"/>
<path d="M96.448 91.4561H91.456V96.4481H96.448V91.4561Z" fill="white"/>
<path d="M96.448 101.439H91.456V106.431H96.448V101.439Z" fill="white"/>
<path d="M96.448 106.432H91.456V111.424H96.448V106.432Z" fill="white"/>
<path d="M96.448 116.416H91.456V121.408H96.448V116.416Z" fill="white"/>
<path d="M96.448 121.407H91.456V126.399H96.448V121.407Z" fill="white"/>
<path d="M101.44 41.5352H96.448V46.5272H101.44V41.5352Z" fill="white"/>
<path d="M101.44 46.5273H96.448V51.5193H101.44V46.5273Z" fill="white"/>
<path d="M101.44 71.4873H96.448V76.4793H101.44V71.4873Z" fill="white"/>
<path d="M101.44 81.4717H96.448V86.4637H101.44V81.4717Z" fill="white"/>
<path d="M101.44 101.439H96.448V106.431H101.44V101.439Z" fill="white"/>
<path d="M101.44 106.432H96.448V111.424H101.44V106.432Z" fill="white"/>
<path d="M101.44 111.424H96.448V116.416H101.44V111.424Z" fill="white"/>
<path d="M101.44 116.416H96.448V121.408H101.44V116.416Z" fill="white"/>
<path d="M106.432 51.5195H101.44V56.5115H106.432V51.5195Z" fill="white"/>
<path d="M106.432 56.5117H101.44V61.5037H106.432V56.5117Z" fill="white"/>
<path d="M106.432 66.4961H101.44V71.4881H106.432V66.4961Z" fill="white"/>
<path d="M106.432 81.4717H101.44V86.4637H106.432V81.4717Z" fill="white"/>
<path d="M106.432 86.4639H101.44V91.4559H106.432V86.4639Z" fill="white"/>
<path d="M106.432 91.4561H101.44V96.4481H106.432V91.4561Z" fill="white"/>
<path d="M106.432 96.4473H101.44V101.439H106.432V96.4473Z" fill="white"/>
<path d="M106.432 101.439H101.44V106.431H106.432V101.439Z" fill="white"/>
<path d="M106.432 106.432H101.44V111.424H106.432V106.432Z" fill="white"/>
<path d="M106.432 121.407H101.44V126.399H106.432V121.407Z" fill="white"/>
<path d="M111.424 41.5352H106.432V46.5272H111.424V41.5352Z" fill="white"/>
<path d="M111.424 46.5273H106.432V51.5193H111.424V46.5273Z" fill="white"/>
<path d="M111.424 56.5117H106.432V61.5037H111.424V56.5117Z" fill="white"/>
<path d="M111.424 61.5039H106.432V66.4959H111.424V61.5039Z" fill="white"/>
<path d="M111.424 71.4873H106.432V76.4793H111.424V71.4873Z" fill="white"/>
<path d="M111.424 81.4717H106.432V86.4637H111.424V81.4717Z" fill="white"/>
<path d="M111.424 96.4473H106.432V101.439H111.424V96.4473Z" fill="white"/>
<path d="M111.424 101.439H106.432V106.431H111.424V101.439Z" fill="white"/>
<path d="M111.424 106.432H106.432V111.424H111.424V106.432Z" fill="white"/>
<path d="M111.424 111.424H106.432V116.416H111.424V111.424Z" fill="white"/>
<path d="M116.416 46.5273H111.424V51.5193H116.416V46.5273Z" fill="white"/>
<path d="M116.416 51.5195H111.424V56.5115H116.416V51.5195Z" fill="white"/>
<path d="M116.416 56.5117H111.424V61.5037H116.416V56.5117Z" fill="white"/>
<path d="M116.416 66.4961H111.424V71.4881H116.416V66.4961Z" fill="white"/>
<path d="M116.416 71.4873H111.424V76.4793H116.416V71.4873Z" fill="white"/>
<path d="M116.416 76.4795H111.424V81.4715H116.416V76.4795Z" fill="white"/>
<path d="M116.416 81.4717H111.424V86.4637H116.416V81.4717Z" fill="white"/>
<path d="M116.416 96.4473H111.424V101.439H116.416V96.4473Z" fill="white"/>
<path d="M116.416 101.439H111.424V106.431H116.416V101.439Z" fill="white"/>
<path d="M116.416 111.424H111.424V116.416H116.416V111.424Z" fill="white"/>
<path d="M116.416 121.407H111.424V126.399H116.416V121.407Z" fill="white"/>
<path d="M121.408 41.5352H116.416V46.5272H121.408V41.5352Z" fill="white"/>
<path d="M121.408 51.5195H116.416V56.5115H121.408V51.5195Z" fill="white"/>
<path d="M121.408 61.5039H116.416V66.4959H121.408V61.5039Z" fill="white"/>
<path d="M121.408 76.4795H116.416V81.4715H121.408V76.4795Z" fill="white"/>
<path d="M121.408 81.4717H116.416V86.4637H121.408V81.4717Z" fill="white"/>
<path d="M121.408 86.4639H116.416V91.4559H121.408V86.4639Z" fill="white"/>
<path d="M121.408 106.432H116.416V111.424H121.408V106.432Z" fill="white"/>
<path d="M126.4 46.5273H121.408V51.5193H126.4V46.5273Z" fill="white"/>
<path d="M126.4 56.5117H121.408V61.5037H126.4V56.5117Z" fill="white"/>
<path d="M126.4 61.5039H121.408V66.4959H126.4V61.5039Z" fill="white"/>
<path d="M126.4 66.4961H121.408V71.4881H126.4V66.4961Z" fill="white"/>
<path d="M126.4 81.4717H121.408V86.4637H126.4V81.4717Z" fill="white"/>
<path d="M126.4 86.4639H121.408V91.4559H126.4V86.4639Z" fill="white"/>
<path d="M126.4 91.4561H121.408V96.4481H126.4V91.4561Z" fill="white"/>
<path d="M126.4 96.4473H121.408V101.439H126.4V96.4473Z" fill="white"/>
<path d="M126.4 116.416H121.408V121.408H126.4V116.416Z" fill="white"/>
<path d="M126.4 121.407H121.408V126.399H126.4V121.407Z" fill="white"/>
</mask>
<g mask="url(#mask0_412_1922)">
<path d="M126.4 1.59961H1.60001V126.4H126.4V1.59961Z" fill="black"/>
</g>
<mask id="mask1_412_1922" style="mask-type:luminance" maskUnits="userSpaceOnUse" x="1" y="1" width="36" height="36">
<path fill-rule="evenodd" clip-rule="evenodd" d="M1.60001 1.59961V36.5436H36.544V1.59961H1.60001ZM6.59201 6.59161H31.552V31.5516H6.59201V6.59161Z" fill="white"/>
</mask>
<g mask="url(#mask1_412_1922)">
<path d="M36.544 1.59961H1.60001V36.5436H36.544V1.59961Z" fill="black"/>
</g>
<mask id="mask2_412_1922" style="mask-type:luminance" maskUnits="userSpaceOnUse" x="11" y="11" width="16" height="16">
<path d="M26.56 11.584H11.584V26.56H26.56V11.584Z" fill="white"/>
</mask>
<g mask="url(#mask2_412_1922)">
<path d="M26.56 11.584H11.584V26.56H26.56V11.584Z" fill="black"/>
</g>
<mask id="mask3_412_1922" style="mask-type:luminance" maskUnits="userSpaceOnUse" x="91" y="1" width="36" height="36">
<path fill-rule="evenodd" clip-rule="evenodd" d="M126.4 1.59961L91.456 1.59961V36.5436H126.4V1.59961ZM121.408 6.59161V31.5516L96.448 31.5516V6.59161L121.408 6.59161Z" fill="white"/>
</mask>
<g mask="url(#mask3_412_1922)">
<path d="M126.4 1.59961H91.456V36.5436H126.4V1.59961Z" fill="black"/>
</g>
<mask id="mask4_412_1922" style="mask-type:luminance" maskUnits="userSpaceOnUse" x="101" y="11" width="16" height="16">
<path d="M116.416 26.56V11.584L101.44 11.584V26.56H116.416Z" fill="white"/>
</mask>
<g mask="url(#mask4_412_1922)">
<path d="M116.416 11.584H101.44V26.56H116.416V11.584Z" fill="black"/>
</g>
<mask id="mask5_412_1922" style="mask-type:luminance" maskUnits="userSpaceOnUse" x="1" y="91" width="36" height="36">
<path fill-rule="evenodd" clip-rule="evenodd" d="M1.60001 126.4H36.544V91.4564H1.60001L1.60001 126.4ZM6.59201 121.408L6.59201 96.4484H31.552L31.552 121.408H6.59201Z" fill="white"/>
</mask>
<g mask="url(#mask5_412_1922)">
<path d="M36.544 91.4561H1.60001V126.4H36.544V91.4561Z" fill="black"/>
</g>
<mask id="mask6_412_1922" style="mask-type:luminance" maskUnits="userSpaceOnUse" x="11" y="101" width="16" height="16">
<path d="M11.584 101.44L11.584 116.416H26.56V101.44H11.584Z" fill="white"/>
</mask>
<g mask="url(#mask6_412_1922)">
<path d="M26.56 101.44H11.584V116.416H26.56V101.44Z" fill="black"/>
</g>
<g clip-path="url(#clip1_412_1922)">
<circle cx="64.5" cy="64.5" r="12.5" fill="white"/>
<path d="M64 48.5C55.437 48.5 48.5 55.438 48.5 64C48.5 72.562 55.438 79.5 64 79.5C72.563 79.5 79.5 72.562 79.5 64C79.5 55.438 72.562 48.5 64 48.5ZM71.613 59.119L69.069 71.107C68.881 71.957 68.375 72.163 67.669 71.763L63.794 68.907L61.925 70.707C61.719 70.913 61.544 71.088 61.144 71.088L61.419 67.144L68.6 60.656C68.913 60.381 68.531 60.225 68.118 60.5L59.243 66.087L55.418 64.893C54.587 64.631 54.568 64.062 55.593 63.662L70.537 57.899C71.231 57.649 71.837 58.068 71.612 59.118L71.613 59.119Z" fill="#269DD9"/>
</g>
</g>
<defs>
<clipPath id="clip0_412_1922">
<rect width="128" height="128" fill="white"/>
</clipPath>
<clipPath id="clip1_412_1922">
<rect width="32" height="32" fill="white" transform="translate(48 48)"/>
</clipPath>
</defs>
</svg>
