<svg width="80" height="80" viewBox="0 0 80 80" fill="none" xmlns="http://www.w3.org/2000/svg">
<path d="M24.8203 46.4859C24.7703 46.4859 24.7187 46.4828 24.6672 46.4765C15.6219 45.3203 8.79999 37.5718 8.79999 28.4515C8.79999 19.3312 15.6203 11.5843 24.6672 10.4265C25.0156 10.3859 25.3578 10.489 25.6187 10.7171C25.8781 10.9468 26.0281 11.2765 26.0281 11.6234V23.3453C26.0281 23.8296 25.7375 24.2671 25.2922 24.4562C23.6875 25.139 22.65 26.7062 22.65 28.4499C22.65 30.1921 23.6875 31.7593 25.2937 32.4437C25.7391 32.6328 26.0281 33.0703 26.0281 33.5546V45.2765C26.0281 45.6234 25.8781 45.9531 25.6187 46.1828C25.3969 46.3796 25.1125 46.4859 24.8203 46.4859ZM23.6125 13.0578C16.4562 14.6171 11.214 21.0078 11.214 28.4515C11.214 35.8953 16.4547 42.2859 23.6125 43.8453V34.2999C21.5375 33.1031 20.2344 30.8859 20.2344 28.4499C20.2344 26.0124 21.5375 23.7968 23.6125 22.5999V13.0578Z" fill="#CAB57B"/>
<path d="M43.8141 27.4922H32.0922C31.6078 27.4922 31.1703 27.2015 30.9797 26.7562C30.5453 25.7312 29.7078 24.8937 28.6828 24.4593C28.2375 24.2703 27.9469 23.8328 27.9469 23.3468V11.625C27.9469 11.2781 28.0969 10.9484 28.3562 10.7187C28.6156 10.4906 28.9547 10.389 29.3078 10.4281C37.5078 11.475 43.9656 17.9328 45.0125 26.1328C45.0562 26.4765 44.95 26.8234 44.7219 27.0843C44.4906 27.3422 44.1609 27.4922 43.8141 27.4922ZM32.8344 25.0765H42.3828C41.075 19.0687 36.3687 14.364 30.3625 13.0562V22.6047C31.3828 23.1968 32.2422 24.0562 32.8344 25.0765Z" fill="#CAB57B"/>
<path d="M29.1547 46.4859C28.8625 46.4859 28.5781 46.3797 28.3562 46.1859C28.0969 45.9562 27.9469 45.6265 27.9469 45.2797V33.5578C27.9469 33.0734 28.2359 32.6359 28.6812 32.4469C29.7078 32.0109 30.5453 31.1718 30.9797 30.1484C31.1687 29.7031 31.6062 29.4125 32.0922 29.4125H43.8141C44.1609 29.4125 44.4906 29.5625 44.7203 29.8218C44.9484 30.0828 45.0547 30.4297 45.0109 30.7734C43.9641 38.9718 37.5062 45.4297 29.3062 46.4781C29.2547 46.4828 29.2047 46.4859 29.1547 46.4859ZM30.3609 34.3015V43.8468C36.3687 42.539 41.0734 37.8328 42.3812 31.8265H32.8359C32.2437 32.8562 31.3937 33.7062 30.3609 34.3015Z" fill="#CAB57B"/>
<path d="M24.8203 17.7781H14.8719C14.2047 17.7781 13.6641 17.2374 13.6641 16.5702C13.6641 15.9031 14.2047 15.3624 14.8719 15.3624H24.8203C25.4875 15.3624 26.0281 15.9031 26.0281 16.5702C26.0266 17.239 25.4875 17.7781 24.8203 17.7781Z" fill="#CAB57B"/>
<path d="M24.8203 23.3171H11.2359C10.5687 23.3171 10.0281 22.7765 10.0281 22.1093C10.0281 21.4421 10.5687 20.9015 11.2359 20.9015H24.8203C25.4875 20.9015 26.0281 21.4421 26.0281 22.1093C26.0266 22.7781 25.4875 23.3171 24.8203 23.3171Z" fill="#CAB57B"/>
<path d="M24.8203 41.739H15.0719C14.4047 41.739 13.8641 41.1984 13.8641 40.5312C13.8641 39.864 14.4047 39.3234 15.0719 39.3234H24.8187C25.4859 39.3234 26.0266 39.864 26.0266 40.5312C26.0266 41.1999 25.4875 41.739 24.8203 41.739Z" fill="#CAB57B"/>
<path d="M24.8203 36.1999H11.2359C10.5687 36.1999 10.0281 35.6593 10.0281 34.9921C10.0281 34.3249 10.5687 33.7843 11.2359 33.7843H24.8203C25.4875 33.7843 26.0281 34.3249 26.0281 34.9921C26.0266 35.6609 25.4875 36.1999 24.8203 36.1999Z" fill="#CAB57B"/>
<path d="M21.4422 29.6593H10.0062C9.33906 29.6593 8.79843 29.1187 8.79843 28.4515C8.79843 27.7843 9.33906 27.2437 10.0062 27.2437H21.4406C22.1078 27.2437 22.6484 27.7843 22.6484 28.4515C22.6484 29.1187 22.1094 29.6593 21.4422 29.6593Z" fill="#CAB57B"/>
<path d="M26.9109 52.0203C13.9156 52.0203 3.34218 41.4468 3.34218 28.4515C3.34218 15.4547 13.9156 4.88123 26.9109 4.88123C39.9078 4.88123 50.4812 15.4547 50.4812 28.4515C50.4797 41.4468 39.9078 52.0203 26.9109 52.0203ZM26.9109 7.29685C15.2469 7.29685 5.75624 16.7875 5.75624 28.4515C5.75624 40.1156 15.2453 49.6062 26.9109 49.6062C38.5766 49.6062 48.0656 40.1172 48.0656 28.4515C48.0656 16.7859 38.575 7.29685 26.9109 7.29685Z" fill="#CAB57B"/>
<path d="M65.2797 73.4969C64.4078 73.4969 63.5359 73.1641 62.8703 72.5016L44.4375 54.0672C43.1094 52.7391 43.1094 50.5766 44.4359 49.2485L48.6828 45.0032C50.0125 43.675 52.1734 43.675 53.5 45.0032L71.9344 63.4375C72.5781 64.0797 72.9328 64.936 72.9328 65.8469C72.9328 66.7563 72.5781 67.6126 71.9344 68.2563L67.6891 72.5016C67.025 73.1641 66.1531 73.4969 65.2797 73.4969ZM51.0922 46.4204C50.8391 46.4204 50.5844 46.5172 50.3906 46.711L46.1453 50.9563C45.7578 51.3438 45.7578 51.9735 46.1469 52.361L64.5781 70.7938C64.9656 71.1813 65.5953 71.1797 65.9812 70.7938L70.2266 66.5485C70.4141 66.361 70.5172 66.111 70.5172 65.8469C70.5172 65.5813 70.4141 65.3329 70.2266 65.1469L51.7937 46.7094C51.6 46.5157 51.3469 46.4204 51.0922 46.4204Z" fill="#CAB57B"/>
<path d="M49.5328 47.0969C49.2234 47.0969 48.9156 46.9797 48.6797 46.7438L44.2453 42.3094C43.7734 41.8375 43.7734 41.0735 44.2453 40.6016C44.7172 40.1297 45.4812 40.1297 45.9531 40.6016L50.3875 45.036C50.8594 45.5078 50.8594 46.2719 50.3875 46.7438C50.1516 46.9781 49.8422 47.0969 49.5328 47.0969Z" fill="#CAB57B"/>
<path d="M45.1063 51.6376C44.7969 51.6376 44.4891 51.5204 44.2531 51.2844L39.8641 46.8969C39.3922 46.4251 39.3922 45.661 39.8641 45.1891C40.3359 44.7172 41.1 44.7172 41.5719 45.1891L45.9609 49.5766C46.4328 50.0485 46.4328 50.8126 45.9609 51.2844C45.7234 51.5188 45.4141 51.6376 45.1063 51.6376Z" fill="#CAB57B"/>
<path d="M73.2562 79.8438H4.54843C3.88125 79.8438 3.34062 79.3032 3.34062 78.636C3.34062 77.9688 3.88125 77.4282 4.54843 77.4282H73.2562C73.9234 77.4282 74.4641 77.9688 74.4641 78.636C74.4641 79.3048 73.9234 79.8438 73.2562 79.8438Z" fill="#CAB57B"/>
<path d="M48.7984 25.0688C48.5891 25.0688 48.3781 25.0141 48.1859 24.9016C47.6125 24.5625 47.4203 23.8234 47.7594 23.2484L53.7766 13.0453C53.9453 12.7594 54.2266 12.5531 54.5516 12.4812C54.875 12.4062 55.2172 12.4719 55.4922 12.6594L62.5437 17.4234L72.2109 0.757813C72.5453 0.182813 73.2812 -0.0187494 73.8609 0.318751C74.4375 0.653126 74.6344 1.39219 74.3 1.96875L63.9812 19.75C63.8125 20.0391 63.5312 20.2469 63.2062 20.3203C62.8766 20.3953 62.5359 20.3328 62.2609 20.1437L55.2031 15.375L49.8391 24.4734C49.6141 24.8563 49.2125 25.0688 48.7984 25.0688Z" fill="#CAB57B"/>
<path d="M7.61875 79.8438C7.5125 79.8438 7.40469 79.8297 7.3 79.8016C6.65625 79.625 6.27813 78.961 6.45313 78.3188L12.8188 55.0485C12.975 54.4797 13.5203 54.1157 14.1047 54.1657L28.6719 55.6266L32.4516 49.2157C32.7906 48.6407 33.5297 48.45 34.1047 48.7891C34.6781 49.1282 34.8703 49.8672 34.5312 50.4422L30.3609 57.5172C30.1234 57.9219 29.6625 58.1469 29.2 58.1063L14.8781 56.6704L8.78281 78.9547C8.63594 79.4922 8.15 79.8438 7.61875 79.8438Z" fill="#CAB57B"/>
<path d="M75.45 12.95C74.875 12.95 74.364 12.5375 74.2609 11.9516L72.6516 2.76255L63.4625 4.37348C62.7969 4.48442 62.1781 4.04848 62.064 3.39223C61.95 2.73598 62.389 2.10942 63.0453 1.9938L73.425 0.175047C74.0906 0.0656717 74.7094 0.500047 74.8234 1.1563L76.6422 11.5344C76.7562 12.1907 76.3172 12.8172 75.6609 12.9329C75.5891 12.9438 75.5172 12.95 75.45 12.95Z" fill="#CAB57B"/>
</svg>
