<svg width="80" height="80" viewBox="0 0 80 80" fill="none" xmlns="http://www.w3.org/2000/svg">
<g clip-path="url(#clip0_318_1581)">
<path d="M74.3906 44.9219C73.7234 44.9219 73.1828 44.3812 73.1828 43.7156L73.1734 18.5281L62.0953 18.5156C61.4281 18.5156 60.8891 17.9734 60.8891 17.3078C60.8891 16.6406 61.4297 16.1016 62.0969 16.1016C62.0969 16.1016 62.0969 16.1016 62.0984 16.1016L74.3828 16.1156C75.0484 16.1156 75.5891 16.6562 75.5891 17.3219L75.5984 43.7141C75.5969 44.3812 75.0578 44.9219 74.3906 44.9219Z" fill="#CAB57B"/>
<path d="M74.3797 79.7502H1.36406C0.696875 79.7502 0.15625 79.2096 0.15625 78.5424V17.3221C0.15625 17.0018 0.282812 16.6955 0.509375 16.4674C0.735937 16.2408 1.04219 16.1143 1.3625 16.1143L25.4781 16.1283C26.1453 16.1283 26.6859 16.6689 26.6844 17.3361C26.6828 18.0033 26.1438 18.5424 25.4766 18.5424L2.56875 18.5283V77.3346H73.1703L73.1734 60.9596C73.1734 60.2924 73.7141 59.7518 74.3812 59.7518C75.0484 59.7518 75.5891 60.2924 75.5891 60.9596L75.5859 78.5424C75.5875 79.2096 75.0469 79.7502 74.3797 79.7502Z" fill="#CAB57B"/>
<path d="M74.4016 27.9562H1.40156C0.734377 27.9562 0.193752 27.4155 0.193752 26.7483C0.193752 26.0812 0.734377 25.5405 1.40156 25.5405H74.4016C75.0688 25.5405 75.6094 26.0812 75.6094 26.7483C75.6094 27.4155 75.0688 27.9562 74.4016 27.9562Z" fill="#CAB57B"/>
<path d="M78.6359 62.0562H54.6703C54.0031 62.0562 53.4625 61.5155 53.4625 60.8483V43.8265C53.4625 43.1593 54.0031 42.6187 54.6703 42.6187H78.6359C79.3031 42.6187 79.8437 43.1593 79.8437 43.8265V60.8483C79.8437 61.5155 79.3031 62.0562 78.6359 62.0562ZM55.8781 59.6405H77.4297V45.0327H55.8781V59.6405Z" fill="#CAB57B"/>
<path d="M65.0484 56.7549C62.5719 56.7549 60.5563 54.7393 60.5563 52.2627C60.5563 49.7861 62.5719 47.7705 65.0484 47.7705C67.525 47.7705 69.5406 49.7861 69.5406 52.2627C69.5406 54.7393 67.525 56.7549 65.0484 56.7549ZM65.0484 50.1861C63.9031 50.1861 62.9703 51.1189 62.9703 52.2643C62.9703 53.4096 63.9031 54.3424 65.0484 54.3424C66.1938 54.3424 67.1266 53.4096 67.1266 52.2643C67.1266 51.1174 66.1938 50.1861 65.0484 50.1861Z" fill="#CAB57B"/>
<path d="M64.1422 22.1204C63.725 22.1204 63.3188 21.9048 63.0953 21.5173L52.4656 3.10792L20.4531 21.5907C19.8734 21.9235 19.1359 21.7251 18.8031 21.1486C18.4703 20.5704 18.6672 19.8329 19.2453 19.4986L52.3047 0.412613C52.8812 0.0782375 53.6203 0.278237 53.9547 0.8548L65.1875 20.3095C65.5203 20.8876 65.3234 21.6251 64.7453 21.9595C64.5547 22.0689 64.3469 22.1204 64.1422 22.1204Z" fill="#CAB57B"/>
<path d="M58.0844 22.5861C57.6688 22.5861 57.2625 22.3705 57.0391 21.9846L52.9266 14.9018C52.5922 14.3252 52.7875 13.5861 53.3641 13.2518C53.9391 12.9158 54.6797 13.1111 55.0141 13.6893L59.1266 20.7721C59.4609 21.3486 59.2656 22.0877 58.6891 22.4221C58.5 22.533 58.2906 22.5861 58.0844 22.5861Z" fill="#CAB57B"/>
<path d="M29.7563 22.3499C29.3391 22.3499 28.9328 22.1342 28.7094 21.7467C28.3766 21.1686 28.5734 20.4311 29.1516 20.0967L45.0453 10.9217C45.6203 10.5874 46.3609 10.7858 46.6953 11.3639C47.0281 11.9421 46.8313 12.6796 46.2531 13.0139L30.3594 22.1889C30.1688 22.2983 29.9609 22.3499 29.7563 22.3499Z" fill="#CAB57B"/>
<path d="M50.7062 16.5893C47.975 16.5893 45.55 14.9518 44.5297 12.419C44.2812 11.8002 44.5797 11.0971 45.1984 10.8471C45.8187 10.6002 46.5203 10.8971 46.7703 11.5159C47.4203 13.1299 48.9656 14.1737 50.7078 14.1737C51.6328 14.1737 52.5109 13.8815 53.2469 13.3284C53.7828 12.9284 54.5375 13.0377 54.9375 13.5706C55.3375 14.1034 55.2297 14.8612 54.6953 15.2612C53.5375 16.1299 52.1578 16.5893 50.7062 16.5893Z" fill="#CAB57B"/>
</g>
<defs>
<clipPath id="clip0_318_1581">
<rect width="80" height="80" fill="white"/>
</clipPath>
</defs>
</svg>
