<svg width="32" height="32" viewBox="0 0 32 32" fill="none" xmlns="http://www.w3.org/2000/svg">
<circle cx="16.5" cy="16.5" r="12.5" fill="white"/>
<path d="M28.7564 7.93732C24.2688 0.999771 15.1065 -1.06274 8.00111 3.24979C1.08267 7.56232 -1.16114 16.9374 3.32649 23.8749L3.70046 24.4374L2.20458 30.0625L7.81412 28.5625L8.37508 28.9375C10.8059 30.25 13.4237 31 16.0415 31C18.8462 31 21.651 30.25 24.0818 28.75C31.0002 24.2499 33.0571 15.0624 28.7564 7.93732V7.93732ZM24.8297 22.3749C24.0818 23.4999 23.1469 24.2499 21.838 24.4374C21.09 24.4374 20.1551 24.8125 16.4154 23.3124C13.2367 21.8124 10.6189 19.3749 8.74905 16.5624C7.62714 15.2499 7.06618 13.5624 6.8792 11.8749C6.8792 10.3748 7.44015 9.06233 8.37508 8.12483C8.74905 7.74982 9.12302 7.56232 9.49699 7.56232H10.4319C10.8059 7.56232 11.1798 7.56232 11.3668 8.31233C11.7408 9.24983 12.6757 11.4999 12.6757 11.6874C12.8627 11.8749 12.8627 12.2499 12.6757 12.4374C12.8627 12.8124 12.6757 13.1874 12.4887 13.3749C12.3018 13.5624 12.1148 13.9374 11.9278 14.1249C11.5538 14.3124 11.3668 14.6874 11.5538 15.0624C12.3018 16.1874 13.2367 17.3124 14.1716 18.2499C15.2935 19.1874 16.4154 19.9374 17.7243 20.4999C18.0983 20.6874 18.4723 20.6874 18.6592 20.3124C18.8462 19.9374 19.7811 18.9999 20.1551 18.6249C20.5291 18.2499 20.7161 18.2499 21.09 18.4374L24.0818 19.9374C24.4558 20.1249 24.8297 20.3124 25.0167 20.4999C25.2037 21.0624 25.2037 21.8124 24.8297 22.3749V22.3749Z" fill="#2BC54D"/>
</svg>
