<svg width="128" height="128" viewBox="0 0 128 128" fill="none" xmlns="http://www.w3.org/2000/svg">
<g clip-path="url(#clip0_412_1609)">
<path d="M128 0H0V128H128V0Z" fill="white"/>
<mask id="mask0_412_1609" style="mask-type:luminance" maskUnits="userSpaceOnUse" x="1" y="1" width="126" height="126">
<path d="M6.08001 40.3838H1.79201V44.6718H6.08001V40.3838Z" fill="white"/>
<path d="M6.08001 44.6719H1.79201V48.9599H6.08001V44.6719Z" fill="white"/>
<path d="M6.08001 53.248H1.79201V57.536H6.08001V53.248Z" fill="white"/>
<path d="M6.08001 66.1123H1.79201V70.4003H6.08001V66.1123Z" fill="white"/>
<path d="M6.08001 70.4004H1.79201V74.6884H6.08001V70.4004Z" fill="white"/>
<path d="M6.08001 87.5518H1.79201V91.8398H6.08001V87.5518Z" fill="white"/>
<path d="M10.368 40.3838H6.08V44.6718H10.368V40.3838Z" fill="white"/>
<path d="M10.368 48.96H6.08V53.248H10.368V48.96Z" fill="white"/>
<path d="M10.368 53.248H6.08V57.536H10.368V53.248Z" fill="white"/>
<path d="M10.368 61.8242H6.08V66.1122H10.368V61.8242Z" fill="white"/>
<path d="M10.368 66.1123H6.08V70.4003H10.368V66.1123Z" fill="white"/>
<path d="M10.368 74.6875H6.08V78.9755H10.368V74.6875Z" fill="white"/>
<path d="M10.368 78.9756H6.08V83.2636H10.368V78.9756Z" fill="white"/>
<path d="M14.656 53.248H10.368V57.536H14.656V53.248Z" fill="white"/>
<path d="M14.656 66.1123H10.368V70.4003H14.656V66.1123Z" fill="white"/>
<path d="M14.656 74.6875H10.368V78.9755H14.656V74.6875Z" fill="white"/>
<path d="M14.656 78.9756H10.368V83.2636H14.656V78.9756Z" fill="white"/>
<path d="M14.656 83.2637H10.368V87.5517H14.656V83.2637Z" fill="white"/>
<path d="M14.656 87.5518H10.368V91.8398H14.656V87.5518Z" fill="white"/>
<path d="M18.944 36.0957H14.656V40.3837H18.944V36.0957Z" fill="white"/>
<path d="M18.944 40.3838H14.656V44.6718H18.944V40.3838Z" fill="white"/>
<path d="M18.944 44.6719H14.656V48.9599H18.944V44.6719Z" fill="white"/>
<path d="M18.944 48.96H14.656V53.248H18.944V48.96Z" fill="white"/>
<path d="M18.944 57.5361H14.656V61.8241H18.944V57.5361Z" fill="white"/>
<path d="M18.944 61.8242H14.656V66.1122H18.944V61.8242Z" fill="white"/>
<path d="M18.944 74.6875H14.656V78.9755H18.944V74.6875Z" fill="white"/>
<path d="M18.944 78.9756H14.656V83.2636H18.944V78.9756Z" fill="white"/>
<path d="M23.232 44.6719H18.944V48.9599H23.232V44.6719Z" fill="white"/>
<path d="M23.232 48.96H18.944V53.248H23.232V48.96Z" fill="white"/>
<path d="M23.232 53.248H18.944V57.536H23.232V53.248Z" fill="white"/>
<path d="M23.232 57.5361H18.944V61.8241H23.232V57.5361Z" fill="white"/>
<path d="M23.232 61.8242H18.944V66.1122H23.232V61.8242Z" fill="white"/>
<path d="M23.232 74.6875H18.944V78.9755H23.232V74.6875Z" fill="white"/>
<path d="M23.232 78.9756H18.944V83.2636H23.232V78.9756Z" fill="white"/>
<path d="M23.232 87.5518H18.944V91.8398H23.232V87.5518Z" fill="white"/>
<path d="M27.52 36.0957H23.232V40.3837H27.52V36.0957Z" fill="white"/>
<path d="M27.52 40.3838H23.232V44.6718H27.52V40.3838Z" fill="white"/>
<path d="M27.52 44.6719H23.232V48.9599H27.52V44.6719Z" fill="white"/>
<path d="M27.52 53.248H23.232V57.536H27.52V53.248Z" fill="white"/>
<path d="M27.52 57.5361H23.232V61.8241H27.52V57.5361Z" fill="white"/>
<path d="M27.52 66.1123H23.232V70.4003H27.52V66.1123Z" fill="white"/>
<path d="M27.52 78.9756H23.232V83.2636H27.52V78.9756Z" fill="white"/>
<path d="M27.52 87.5518H23.232V91.8398H27.52V87.5518Z" fill="white"/>
<path d="M31.808 36.0957H27.52V40.3837H31.808V36.0957Z" fill="white"/>
<path d="M31.808 44.6719H27.52V48.9599H31.808V44.6719Z" fill="white"/>
<path d="M31.808 53.248H27.52V57.536H31.808V53.248Z" fill="white"/>
<path d="M31.808 61.8242H27.52V66.1122H31.808V61.8242Z" fill="white"/>
<path d="M31.808 70.4004H27.52V74.6884H31.808V70.4004Z" fill="white"/>
<path d="M31.808 78.9756H27.52V83.2636H31.808V78.9756Z" fill="white"/>
<path d="M31.808 87.5518H27.52V91.8398H31.808V87.5518Z" fill="white"/>
<path d="M36.096 36.0957H31.808V40.3837H36.096V36.0957Z" fill="white"/>
<path d="M36.096 40.3838H31.808V44.6718H36.096V40.3838Z" fill="white"/>
<path d="M36.096 48.96H31.808V53.248H36.096V48.96Z" fill="white"/>
<path d="M36.096 53.248H31.808V57.536H36.096V53.248Z" fill="white"/>
<path d="M36.096 57.5361H31.808V61.8241H36.096V57.5361Z" fill="white"/>
<path d="M36.096 61.8242H31.808V66.1122H36.096V61.8242Z" fill="white"/>
<path d="M40.384 6.08008H36.096V10.3681H40.384V6.08008Z" fill="white"/>
<path d="M40.384 10.3682H36.096V14.6562H40.384V10.3682Z" fill="white"/>
<path d="M40.384 27.5195H36.096V31.8075H40.384V27.5195Z" fill="white"/>
<path d="M40.384 40.3838H36.096V44.6718H40.384V40.3838Z" fill="white"/>
<path d="M40.384 48.96H36.096V53.248H40.384V48.96Z" fill="white"/>
<path d="M40.384 61.8242H36.096V66.1122H40.384V61.8242Z" fill="white"/>
<path d="M40.384 66.1123H36.096V70.4003H40.384V66.1123Z" fill="white"/>
<path d="M40.384 70.4004H36.096V74.6884H40.384V70.4004Z" fill="white"/>
<path d="M40.384 78.9756H36.096V83.2636H40.384V78.9756Z" fill="white"/>
<path d="M40.384 83.2637H36.096V87.5517H40.384V83.2637Z" fill="white"/>
<path d="M40.384 87.5518H36.096V91.8398H40.384V87.5518Z" fill="white"/>
<path d="M40.384 96.1279H36.096V100.416H40.384V96.1279Z" fill="white"/>
<path d="M40.384 100.416H36.096V104.704H40.384V100.416Z" fill="white"/>
<path d="M40.384 108.992H36.096V113.28H40.384V108.992Z" fill="white"/>
<path d="M44.672 6.08008H40.384V10.3681H44.672V6.08008Z" fill="white"/>
<path d="M44.672 10.3682H40.384V14.6562H44.672V10.3682Z" fill="white"/>
<path d="M44.672 53.248H40.384V57.536H44.672V53.248Z" fill="white"/>
<path d="M44.672 61.8242H40.384V66.1122H44.672V61.8242Z" fill="white"/>
<path d="M44.672 74.6875H40.384V78.9755H44.672V74.6875Z" fill="white"/>
<path d="M44.672 78.9756H40.384V83.2636H44.672V78.9756Z" fill="white"/>
<path d="M44.672 83.2637H40.384V87.5517H44.672V83.2637Z" fill="white"/>
<path d="M44.672 91.8398H40.384V96.1278H44.672V91.8398Z" fill="white"/>
<path d="M44.672 96.1279H40.384V100.416H44.672V96.1279Z" fill="white"/>
<path d="M44.672 108.992H40.384V113.28H44.672V108.992Z" fill="white"/>
<path d="M44.672 117.568H40.384V121.856H44.672V117.568Z" fill="white"/>
<path d="M44.672 121.856H40.384V126.144H44.672V121.856Z" fill="white"/>
<path d="M48.96 1.79199H44.672V6.07999H48.96V1.79199Z" fill="white"/>
<path d="M48.96 14.6562H44.672V18.9443H48.96V14.6562Z" fill="white"/>
<path d="M48.96 27.5195H44.672V31.8075H48.96V27.5195Z" fill="white"/>
<path d="M48.96 36.0957H44.672V40.3837H48.96V36.0957Z" fill="white"/>
<path d="M48.96 83.2637H44.672V87.5517H48.96V83.2637Z" fill="white"/>
<path d="M48.96 87.5518H44.672V91.8398H48.96V87.5518Z" fill="white"/>
<path d="M48.96 91.8398H44.672V96.1278H48.96V91.8398Z" fill="white"/>
<path d="M48.96 100.416H44.672V104.704H48.96V100.416Z" fill="white"/>
<path d="M48.96 104.704H44.672V108.992H48.96V104.704Z" fill="white"/>
<path d="M48.96 121.856H44.672V126.144H48.96V121.856Z" fill="white"/>
<path d="M53.248 6.08008H48.96V10.3681H53.248V6.08008Z" fill="white"/>
<path d="M53.248 10.3682H48.96V14.6562H53.248V10.3682Z" fill="white"/>
<path d="M53.248 18.9443H48.96V23.2323H53.248V18.9443Z" fill="white"/>
<path d="M53.248 31.8076H48.96V36.0956H53.248V31.8076Z" fill="white"/>
<path d="M53.248 40.3838H48.96V44.6718H53.248V40.3838Z" fill="white"/>
<path d="M53.248 96.1279H48.96V100.416H53.248V96.1279Z" fill="white"/>
<path d="M53.248 104.704H48.96V108.992H53.248V104.704Z" fill="white"/>
<path d="M57.536 6.08008H53.248V10.3681H57.536V6.08008Z" fill="white"/>
<path d="M57.536 10.3682H53.248V14.6562H57.536V10.3682Z" fill="white"/>
<path d="M57.536 18.9443H53.248V23.2323H57.536V18.9443Z" fill="white"/>
<path d="M57.536 23.2324H53.248V27.5204H57.536V23.2324Z" fill="white"/>
<path d="M57.536 27.5195H53.248V31.8075H57.536V27.5195Z" fill="white"/>
<path d="M57.536 40.3838H53.248V44.6718H57.536V40.3838Z" fill="white"/>
<path d="M57.536 83.2637H53.248V87.5517H57.536V83.2637Z" fill="white"/>
<path d="M57.536 87.5518H53.248V91.8398H57.536V87.5518Z" fill="white"/>
<path d="M57.536 91.8398H53.248V96.1278H57.536V91.8398Z" fill="white"/>
<path d="M57.536 96.1279H53.248V100.416H57.536V96.1279Z" fill="white"/>
<path d="M57.536 117.568H53.248V121.856H57.536V117.568Z" fill="white"/>
<path d="M61.824 6.08008H57.536V10.3681H61.824V6.08008Z" fill="white"/>
<path d="M61.824 10.3682H57.536V14.6562H61.824V10.3682Z" fill="white"/>
<path d="M61.824 14.6562H57.536V18.9443H61.824V14.6562Z" fill="white"/>
<path d="M61.824 18.9443H57.536V23.2323H61.824V18.9443Z" fill="white"/>
<path d="M61.824 31.8076H57.536V36.0956H61.824V31.8076Z" fill="white"/>
<path d="M61.824 36.0957H57.536V40.3837H61.824V36.0957Z" fill="white"/>
<path d="M61.824 83.2637H57.536V87.5517H61.824V83.2637Z" fill="white"/>
<path d="M61.824 87.5518H57.536V91.8398H61.824V87.5518Z" fill="white"/>
<path d="M61.824 96.1279H57.536V100.416H61.824V96.1279Z" fill="white"/>
<path d="M61.824 108.992H57.536V113.28H61.824V108.992Z" fill="white"/>
<path d="M61.824 117.568H57.536V121.856H61.824V117.568Z" fill="white"/>
<path d="M61.824 121.856H57.536V126.144H61.824V121.856Z" fill="white"/>
<path d="M66.112 10.3682H61.824V14.6562H66.112V10.3682Z" fill="white"/>
<path d="M66.112 14.6562H61.824V18.9443H66.112V14.6562Z" fill="white"/>
<path d="M66.112 18.9443H61.824V23.2323H66.112V18.9443Z" fill="white"/>
<path d="M66.112 23.2324H61.824V27.5204H66.112V23.2324Z" fill="white"/>
<path d="M66.112 27.5195H61.824V31.8075H66.112V27.5195Z" fill="white"/>
<path d="M66.112 31.8076H61.824V36.0956H66.112V31.8076Z" fill="white"/>
<path d="M66.112 36.0957H61.824V40.3837H66.112V36.0957Z" fill="white"/>
<path d="M66.112 83.2637H61.824V87.5517H66.112V83.2637Z" fill="white"/>
<path d="M66.112 96.1279H61.824V100.416H66.112V96.1279Z" fill="white"/>
<path d="M66.112 108.992H61.824V113.28H66.112V108.992Z" fill="white"/>
<path d="M66.112 113.28H61.824V117.568H66.112V113.28Z" fill="white"/>
<path d="M66.112 117.568H61.824V121.856H66.112V117.568Z" fill="white"/>
<path d="M66.112 121.856H61.824V126.144H66.112V121.856Z" fill="white"/>
<path d="M70.4 1.79199H66.112V6.07999H70.4V1.79199Z" fill="white"/>
<path d="M70.4 18.9443H66.112V23.2323H70.4V18.9443Z" fill="white"/>
<path d="M70.4 31.8076H66.112V36.0956H70.4V31.8076Z" fill="white"/>
<path d="M70.4 83.2637H66.112V87.5517H70.4V83.2637Z" fill="white"/>
<path d="M70.4 87.5518H66.112V91.8398H70.4V87.5518Z" fill="white"/>
<path d="M70.4 108.992H66.112V113.28H70.4V108.992Z" fill="white"/>
<path d="M70.4 117.568H66.112V121.856H70.4V117.568Z" fill="white"/>
<path d="M74.688 6.08008H70.4V10.3681H74.688V6.08008Z" fill="white"/>
<path d="M74.688 10.3682H70.4V14.6562H74.688V10.3682Z" fill="white"/>
<path d="M74.688 18.9443H70.4V23.2323H74.688V18.9443Z" fill="white"/>
<path d="M74.688 27.5195H70.4V31.8075H74.688V27.5195Z" fill="white"/>
<path d="M74.688 36.0957H70.4V40.3837H74.688V36.0957Z" fill="white"/>
<path d="M74.688 40.3838H70.4V44.6718H74.688V40.3838Z" fill="white"/>
<path d="M74.688 83.2637H70.4V87.5517H74.688V83.2637Z" fill="white"/>
<path d="M74.688 91.8398H70.4V96.1278H74.688V91.8398Z" fill="white"/>
<path d="M74.688 96.1279H70.4V100.416H74.688V96.1279Z" fill="white"/>
<path d="M74.688 117.568H70.4V121.856H74.688V117.568Z" fill="white"/>
<path d="M78.976 10.3682H74.688V14.6562H78.976V10.3682Z" fill="white"/>
<path d="M78.976 18.9443H74.688V23.2323H78.976V18.9443Z" fill="white"/>
<path d="M78.976 36.0957H74.688V40.3837H78.976V36.0957Z" fill="white"/>
<path d="M78.976 40.3838H74.688V44.6718H78.976V40.3838Z" fill="white"/>
<path d="M78.976 83.2637H74.688V87.5517H78.976V83.2637Z" fill="white"/>
<path d="M78.976 96.1279H74.688V100.416H78.976V96.1279Z" fill="white"/>
<path d="M78.976 108.992H74.688V113.28H78.976V108.992Z" fill="white"/>
<path d="M78.976 121.856H74.688V126.144H78.976V121.856Z" fill="white"/>
<path d="M83.264 1.79199H78.976V6.07999H83.264V1.79199Z" fill="white"/>
<path d="M83.264 6.08008H78.976V10.3681H83.264V6.08008Z" fill="white"/>
<path d="M83.264 14.6562H78.976V18.9443H83.264V14.6562Z" fill="white"/>
<path d="M83.264 27.5195H78.976V31.8075H83.264V27.5195Z" fill="white"/>
<path d="M83.264 36.0957H78.976V40.3837H83.264V36.0957Z" fill="white"/>
<path d="M83.264 83.2637H78.976V87.5517H83.264V83.2637Z" fill="white"/>
<path d="M83.264 104.704H78.976V108.992H83.264V104.704Z" fill="white"/>
<path d="M83.264 121.856H78.976V126.144H83.264V121.856Z" fill="white"/>
<path d="M87.552 14.6562H83.264V18.9443H87.552V14.6562Z" fill="white"/>
<path d="M87.552 18.9443H83.264V23.2323H87.552V18.9443Z" fill="white"/>
<path d="M87.552 31.8076H83.264V36.0956H87.552V31.8076Z" fill="white"/>
<path d="M87.552 40.3838H83.264V44.6718H87.552V40.3838Z" fill="white"/>
<path d="M87.552 44.6719H83.264V48.9599H87.552V44.6719Z" fill="white"/>
<path d="M87.552 48.96H83.264V53.248H87.552V48.96Z" fill="white"/>
<path d="M87.552 61.8242H83.264V66.1122H87.552V61.8242Z" fill="white"/>
<path d="M87.552 66.1123H83.264V70.4003H87.552V66.1123Z" fill="white"/>
<path d="M87.552 70.4004H83.264V74.6884H87.552V70.4004Z" fill="white"/>
<path d="M87.552 78.9756H83.264V83.2636H87.552V78.9756Z" fill="white"/>
<path d="M87.552 91.8398H83.264V96.1278H87.552V91.8398Z" fill="white"/>
<path d="M87.552 96.1279H83.264V100.416H87.552V96.1279Z" fill="white"/>
<path d="M87.552 100.416H83.264V104.704H87.552V100.416Z" fill="white"/>
<path d="M87.552 117.568H83.264V121.856H87.552V117.568Z" fill="white"/>
<path d="M91.84 1.79199H87.552V6.07999H91.84V1.79199Z" fill="white"/>
<path d="M91.84 6.08008H87.552V10.3681H91.84V6.08008Z" fill="white"/>
<path d="M91.84 10.3682H87.552V14.6562H91.84V10.3682Z" fill="white"/>
<path d="M91.84 27.5195H87.552V31.8075H91.84V27.5195Z" fill="white"/>
<path d="M91.84 40.3838H87.552V44.6718H91.84V40.3838Z" fill="white"/>
<path d="M91.84 48.96H87.552V53.248H91.84V48.96Z" fill="white"/>
<path d="M91.84 57.5361H87.552V61.8241H91.84V57.5361Z" fill="white"/>
<path d="M91.84 61.8242H87.552V66.1122H91.84V61.8242Z" fill="white"/>
<path d="M91.84 70.4004H87.552V74.6884H91.84V70.4004Z" fill="white"/>
<path d="M91.84 78.9756H87.552V83.2636H91.84V78.9756Z" fill="white"/>
<path d="M91.84 83.2637H87.552V87.5517H91.84V83.2637Z" fill="white"/>
<path d="M91.84 87.5518H87.552V91.8398H91.84V87.5518Z" fill="white"/>
<path d="M91.84 91.8398H87.552V96.1278H91.84V91.8398Z" fill="white"/>
<path d="M91.84 96.1279H87.552V100.416H91.84V96.1279Z" fill="white"/>
<path d="M91.84 100.416H87.552V104.704H91.84V100.416Z" fill="white"/>
<path d="M91.84 104.704H87.552V108.992H91.84V104.704Z" fill="white"/>
<path d="M91.84 108.992H87.552V113.28H91.84V108.992Z" fill="white"/>
<path d="M96.128 36.0957H91.84V40.3837H96.128V36.0957Z" fill="white"/>
<path d="M96.128 40.3838H91.84V44.6718H96.128V40.3838Z" fill="white"/>
<path d="M96.128 44.6719H91.84V48.9599H96.128V44.6719Z" fill="white"/>
<path d="M96.128 53.248H91.84V57.536H96.128V53.248Z" fill="white"/>
<path d="M96.128 57.5361H91.84V61.8241H96.128V57.5361Z" fill="white"/>
<path d="M96.128 66.1123H91.84V70.4003H96.128V66.1123Z" fill="white"/>
<path d="M96.128 74.6875H91.84V78.9755H96.128V74.6875Z" fill="white"/>
<path d="M96.128 83.2637H91.84V87.5517H96.128V83.2637Z" fill="white"/>
<path d="M96.128 87.5518H91.84V91.8398H96.128V87.5518Z" fill="white"/>
<path d="M96.128 104.704H91.84V108.992H96.128V104.704Z" fill="white"/>
<path d="M96.128 108.992H91.84V113.28H96.128V108.992Z" fill="white"/>
<path d="M96.128 117.568H91.84V121.856H96.128V117.568Z" fill="white"/>
<path d="M96.128 121.856H91.84V126.144H96.128V121.856Z" fill="white"/>
<path d="M100.416 57.5361H96.128V61.8241H100.416V57.5361Z" fill="white"/>
<path d="M100.416 61.8242H96.128V66.1122H100.416V61.8242Z" fill="white"/>
<path d="M100.416 66.1123H96.128V70.4003H100.416V66.1123Z" fill="white"/>
<path d="M100.416 87.5518H96.128V91.8398H100.416V87.5518Z" fill="white"/>
<path d="M100.416 96.1279H96.128V100.416H100.416V96.1279Z" fill="white"/>
<path d="M100.416 104.704H96.128V108.992H100.416V104.704Z" fill="white"/>
<path d="M100.416 108.992H96.128V113.28H100.416V108.992Z" fill="white"/>
<path d="M100.416 113.28H96.128V117.568H100.416V113.28Z" fill="white"/>
<path d="M100.416 117.568H96.128V121.856H100.416V117.568Z" fill="white"/>
<path d="M100.416 121.856H96.128V126.144H100.416V121.856Z" fill="white"/>
<path d="M104.704 40.3838H100.416V44.6718H104.704V40.3838Z" fill="white"/>
<path d="M104.704 53.248H100.416V57.536H104.704V53.248Z" fill="white"/>
<path d="M104.704 66.1123H100.416V70.4003H104.704V66.1123Z" fill="white"/>
<path d="M104.704 70.4004H100.416V74.6884H104.704V70.4004Z" fill="white"/>
<path d="M104.704 74.6875H100.416V78.9755H104.704V74.6875Z" fill="white"/>
<path d="M104.704 83.2637H100.416V87.5517H104.704V83.2637Z" fill="white"/>
<path d="M104.704 87.5518H100.416V91.8398H104.704V87.5518Z" fill="white"/>
<path d="M104.704 104.704H100.416V108.992H104.704V104.704Z" fill="white"/>
<path d="M104.704 108.992H100.416V113.28H104.704V108.992Z" fill="white"/>
<path d="M108.992 40.3838H104.704V44.6718H108.992V40.3838Z" fill="white"/>
<path d="M108.992 44.6719H104.704V48.9599H108.992V44.6719Z" fill="white"/>
<path d="M108.992 53.248H104.704V57.536H108.992V53.248Z" fill="white"/>
<path d="M108.992 66.1123H104.704V70.4003H108.992V66.1123Z" fill="white"/>
<path d="M108.992 74.6875H104.704V78.9755H108.992V74.6875Z" fill="white"/>
<path d="M108.992 83.2637H104.704V87.5517H108.992V83.2637Z" fill="white"/>
<path d="M108.992 87.5518H104.704V91.8398H108.992V87.5518Z" fill="white"/>
<path d="M108.992 91.8398H104.704V96.1278H108.992V91.8398Z" fill="white"/>
<path d="M108.992 96.1279H104.704V100.416H108.992V96.1279Z" fill="white"/>
<path d="M108.992 100.416H104.704V104.704H108.992V100.416Z" fill="white"/>
<path d="M108.992 104.704H104.704V108.992H108.992V104.704Z" fill="white"/>
<path d="M108.992 117.568H104.704V121.856H108.992V117.568Z" fill="white"/>
<path d="M108.992 121.856H104.704V126.144H108.992V121.856Z" fill="white"/>
<path d="M113.28 44.6719H108.992V48.9599H113.28V44.6719Z" fill="white"/>
<path d="M113.28 48.96H108.992V53.248H113.28V48.96Z" fill="white"/>
<path d="M113.28 57.5361H108.992V61.8241H113.28V57.5361Z" fill="white"/>
<path d="M113.28 61.8242H108.992V66.1122H113.28V61.8242Z" fill="white"/>
<path d="M113.28 74.6875H108.992V78.9755H113.28V74.6875Z" fill="white"/>
<path d="M113.28 83.2637H108.992V87.5517H113.28V83.2637Z" fill="white"/>
<path d="M113.28 87.5518H108.992V91.8398H113.28V87.5518Z" fill="white"/>
<path d="M113.28 100.416H108.992V104.704H113.28V100.416Z" fill="white"/>
<path d="M113.28 104.704H108.992V108.992H113.28V104.704Z" fill="white"/>
<path d="M113.28 117.568H108.992V121.856H113.28V117.568Z" fill="white"/>
<path d="M117.568 36.0957H113.28V40.3837H117.568V36.0957Z" fill="white"/>
<path d="M117.568 40.3838H113.28V44.6718H117.568V40.3838Z" fill="white"/>
<path d="M117.568 44.6719H113.28V48.9599H117.568V44.6719Z" fill="white"/>
<path d="M117.568 48.96H113.28V53.248H117.568V48.96Z" fill="white"/>
<path d="M117.568 53.248H113.28V57.536H117.568V53.248Z" fill="white"/>
<path d="M117.568 66.1123H113.28V70.4003H117.568V66.1123Z" fill="white"/>
<path d="M117.568 91.8398H113.28V96.1278H117.568V91.8398Z" fill="white"/>
<path d="M117.568 104.704H113.28V108.992H117.568V104.704Z" fill="white"/>
<path d="M117.568 108.992H113.28V113.28H117.568V108.992Z" fill="white"/>
<path d="M117.568 113.28H113.28V117.568H117.568V113.28Z" fill="white"/>
<path d="M117.568 117.568H113.28V121.856H117.568V117.568Z" fill="white"/>
<path d="M117.568 121.856H113.28V126.144H117.568V121.856Z" fill="white"/>
<path d="M121.856 36.0957H117.568V40.3837H121.856V36.0957Z" fill="white"/>
<path d="M121.856 48.96H117.568V53.248H121.856V48.96Z" fill="white"/>
<path d="M121.856 78.9756H117.568V83.2636H121.856V78.9756Z" fill="white"/>
<path d="M121.856 83.2637H117.568V87.5517H121.856V83.2637Z" fill="white"/>
<path d="M121.856 87.5518H117.568V91.8398H121.856V87.5518Z" fill="white"/>
<path d="M126.144 40.3838H121.856V44.6718H126.144V40.3838Z" fill="white"/>
<path d="M126.144 48.96H121.856V53.248H126.144V48.96Z" fill="white"/>
<path d="M126.144 57.5361H121.856V61.8241H126.144V57.5361Z" fill="white"/>
<path d="M126.144 61.8242H121.856V66.1122H126.144V61.8242Z" fill="white"/>
<path d="M126.144 66.1123H121.856V70.4003H126.144V66.1123Z" fill="white"/>
<path d="M126.144 78.9756H121.856V83.2636H126.144V78.9756Z" fill="white"/>
<path d="M126.144 83.2637H121.856V87.5517H126.144V83.2637Z" fill="white"/>
<path d="M126.144 87.5518H121.856V91.8398H126.144V87.5518Z" fill="white"/>
<path d="M126.144 91.8398H121.856V96.1278H126.144V91.8398Z" fill="white"/>
<path d="M126.144 96.1279H121.856V100.416H126.144V96.1279Z" fill="white"/>
<path d="M126.144 100.416H121.856V104.704H126.144V100.416Z" fill="white"/>
<path d="M126.144 104.704H121.856V108.992H126.144V104.704Z" fill="white"/>
<path d="M126.144 121.856H121.856V126.144H126.144V121.856Z" fill="white"/>
</mask>
<g mask="url(#mask0_412_1609)">
<path d="M126.144 1.79199H1.79201V126.144H126.144V1.79199Z" fill="black"/>
</g>
<mask id="mask1_412_1609" style="mask-type:luminance" maskUnits="userSpaceOnUse" x="1" y="1" width="31" height="31">
<path fill-rule="evenodd" clip-rule="evenodd" d="M1.79201 1.79199V31.808H31.808V1.79199H1.79201ZM6.08001 6.07999H27.52V27.52H6.08001V6.07999Z" fill="white"/>
</mask>
<g mask="url(#mask1_412_1609)">
<path d="M31.808 1.79199H1.79201V31.808H31.808V1.79199Z" fill="black"/>
</g>
<mask id="mask2_412_1609" style="mask-type:luminance" maskUnits="userSpaceOnUse" x="10" y="10" width="14" height="14">
<path d="M23.232 10.3682H10.368V23.2322H23.232V10.3682Z" fill="white"/>
</mask>
<g mask="url(#mask2_412_1609)">
<path d="M23.232 10.3682H10.368V23.2322H23.232V10.3682Z" fill="black"/>
</g>
<mask id="mask3_412_1609" style="mask-type:luminance" maskUnits="userSpaceOnUse" x="96" y="1" width="31" height="31">
<path fill-rule="evenodd" clip-rule="evenodd" d="M126.144 1.79199L96.128 1.79199V31.808L126.144 31.808V1.79199ZM121.856 6.07999V27.52H100.416V6.07999L121.856 6.07999Z" fill="white"/>
</mask>
<g mask="url(#mask3_412_1609)">
<path d="M126.144 1.79199H96.128V31.808H126.144V1.79199Z" fill="black"/>
</g>
<mask id="mask4_412_1609" style="mask-type:luminance" maskUnits="userSpaceOnUse" x="104" y="10" width="14" height="14">
<path d="M117.568 23.2322V10.3682H104.704V23.2322H117.568Z" fill="white"/>
</mask>
<g mask="url(#mask4_412_1609)">
<path d="M117.568 10.3682H104.704V23.2322H117.568V10.3682Z" fill="black"/>
</g>
<mask id="mask5_412_1609" style="mask-type:luminance" maskUnits="userSpaceOnUse" x="1" y="96" width="31" height="31">
<path fill-rule="evenodd" clip-rule="evenodd" d="M1.79201 126.144H31.808L31.808 96.1276H1.79201L1.79201 126.144ZM6.08001 121.856L6.08001 100.416H27.52V121.856H6.08001Z" fill="white"/>
</mask>
<g mask="url(#mask5_412_1609)">
<path d="M31.808 96.1279H1.79201V126.144H31.808V96.1279Z" fill="black"/>
</g>
<mask id="mask6_412_1609" style="mask-type:luminance" maskUnits="userSpaceOnUse" x="10" y="104" width="14" height="14">
<path d="M10.368 104.704V117.568H23.232V104.704H10.368Z" fill="white"/>
</mask>
<g mask="url(#mask6_412_1609)">
<path d="M23.232 104.704H10.368V117.568H23.232V104.704Z" fill="black"/>
</g>
<circle cx="64.5" cy="64.5" r="12.5" fill="white"/>
<path d="M76.7564 55.9373C72.2688 48.9998 63.1065 46.9373 56.0011 51.2498C49.0827 55.5623 46.8389 64.9374 51.3265 71.8749L51.7005 72.4375L50.2046 78.0625L55.8141 76.5625L56.3751 76.9375C58.8059 78.25 61.4237 79 64.0415 79C66.8462 79 69.651 78.25 72.0818 76.75C79.0002 72.2499 81.0571 63.0624 76.7564 55.9373ZM72.8297 70.3749C72.0818 71.4999 71.1469 72.2499 69.838 72.4375C69.09 72.4375 68.1551 72.8125 64.4154 71.3124C61.2367 69.8124 58.6189 67.3749 56.749 64.5624C55.6271 63.2499 55.0662 61.5624 54.8792 59.8749C54.8792 58.3748 55.4402 57.0623 56.3751 56.1248C56.749 55.7498 57.123 55.5623 57.497 55.5623H58.4319C58.8059 55.5623 59.1798 55.5623 59.3668 56.3123C59.7408 57.2498 60.6757 59.4999 60.6757 59.6874C60.8627 59.8749 60.8627 60.2499 60.6757 60.4374C60.8627 60.8124 60.6757 61.1874 60.4887 61.3749C60.3018 61.5624 60.1148 61.9374 59.9278 62.1249C59.5538 62.3124 59.3668 62.6874 59.5538 63.0624C60.3018 64.1874 61.2367 65.3124 62.1716 66.2499C63.2935 67.1874 64.4154 67.9374 65.7243 68.4999C66.0983 68.6874 66.4723 68.6874 66.6592 68.3124C66.8462 67.9374 67.7811 66.9999 68.1551 66.6249C68.5291 66.2499 68.7161 66.2499 69.09 66.4374L72.0818 67.9374C72.4558 68.1249 72.8297 68.3124 73.0167 68.4999C73.2037 69.0624 73.2037 69.8124 72.8297 70.3749Z" fill="#2BC54D"/>
</g>
<defs>
<clipPath id="clip0_412_1609">
<rect width="128" height="128" fill="white"/>
</clipPath>
</defs>
</svg>
