<svg width="80" height="80" viewBox="0 0 80 80" fill="none" xmlns="http://www.w3.org/2000/svg">
<g clip-path="url(#clip0_315_1290)">
<path d="M40 79.8437C18.2344 79.8437 0.52655 62.1359 0.52655 40.3703C0.52655 33.0093 2.4203 26.1719 6.15311 20.0484C6.49999 19.4797 7.24061 19.2984 7.81249 19.6453C8.38124 19.9922 8.56249 20.7359 8.21561 21.3047C4.71561 27.0437 2.94218 33.4578 2.94218 40.3703C2.94218 60.8047 19.5672 77.4297 40.0016 77.4297C60.4359 77.4297 77.0609 60.8047 77.0609 40.3703C77.0609 19.9359 60.4344 3.31091 40 3.31091C35.1594 3.31091 30.7156 4.15154 26.4172 5.87966C25.7969 6.12966 25.0953 5.8281 24.8469 5.20935C24.5984 4.5906 24.8984 3.88748 25.5172 3.63904C30.1062 1.79373 34.8437 0.896851 40 0.896851C61.7656 0.896851 79.4734 18.6047 79.4734 40.3703C79.4734 62.1359 61.7656 79.8437 40 79.8437Z" fill="#CAB57B"/>
<path d="M40 79.8438C27.2359 79.8438 16.8516 62.136 16.8516 40.3704C16.8516 39.7032 17.3922 39.1625 18.0594 39.1625C18.7266 39.1625 19.2672 39.7032 19.2672 40.3704C19.2672 60.4579 28.7625 77.4297 40.0016 77.4297C51.5344 77.4297 61.6484 59.8688 61.6484 39.8485C61.6484 20.0454 51.9453 3.31567 40.4578 3.31567C36.425 3.31567 32.6844 5.19692 29.3391 8.90786C28.8938 9.40317 28.1297 9.4438 27.6344 8.99692C27.1391 8.55005 27.1 7.78755 27.5453 7.29224C31.3672 3.05161 35.7109 0.901611 40.4578 0.901611C53.4734 0.900049 64.0625 18.3719 64.0625 39.8485C64.0625 61.1547 52.8187 79.8438 40 79.8438Z" fill="#CAB57B"/>
<path d="M40.4562 79.8438C39.789 79.8438 39.2484 79.3031 39.2484 78.636V2.10784C39.2484 1.44065 39.789 0.900024 40.4562 0.900024C41.1234 0.900024 41.664 1.44065 41.664 2.10784V78.636C41.664 79.3031 41.1234 79.8438 40.4562 79.8438Z" fill="#CAB57B"/>
<path d="M78.2656 41.5781H1.73436C1.06718 41.5781 0.52655 41.0375 0.52655 40.3703C0.52655 39.7031 1.06718 39.1625 1.73436 39.1625H78.2656C78.9328 39.1625 79.4734 39.7031 79.4734 40.3703C79.4734 41.0375 78.9328 41.5781 78.2656 41.5781Z" fill="#CAB57B"/>
<path d="M69.6484 65.7657H10.3516C9.68436 65.7657 9.14374 65.2251 9.14374 64.5579C9.14374 63.8907 9.68436 63.3501 10.3516 63.3501H69.6484C70.3156 63.3501 70.8562 63.8907 70.8562 64.5579C70.8562 65.2251 70.3156 65.7657 69.6484 65.7657Z" fill="#CAB57B"/>
<path d="M69.6484 17.3906H29.3594C28.6922 17.3906 28.1516 16.85 28.1516 16.1828C28.1516 15.5156 28.6922 14.975 29.3594 14.975H69.6469C70.3141 14.975 70.8547 15.5156 70.8547 16.1828C70.8547 16.85 70.3156 17.3906 69.6484 17.3906Z" fill="#CAB57B"/>
<path d="M17.5031 41.5797C17.0828 41.5797 16.6937 41.3609 16.4734 41.0031C15.9672 40.175 4.04999 20.6328 4.04999 13.6094C4.04999 6.19219 10.0859 0.15625 17.5031 0.15625C24.9203 0.15625 30.9562 6.19219 30.9562 13.6094C30.9562 20.6313 19.0406 40.175 18.5328 41.0031C18.3125 41.3609 17.9234 41.5797 17.5031 41.5797ZM17.5031 2.57031C11.4172 2.57031 6.46405 7.52187 6.46405 13.6078C6.46405 18.4016 13.6734 31.5641 17.5031 38.0281C21.3312 31.5625 28.5406 18.4 28.5406 13.6078C28.5406 7.52187 23.5891 2.57031 17.5031 2.57031Z" fill="#CAB57B"/>
<path d="M17.4609 20.5844C13.7344 20.5844 10.7031 17.5531 10.7031 13.8265C10.7031 10.1 13.7344 7.06873 17.4609 7.06873C21.1875 7.06873 24.2188 10.1 24.2188 13.8265C24.2188 17.5531 21.1875 20.5844 17.4609 20.5844ZM17.4609 9.48279C15.0656 9.48279 13.1172 11.4312 13.1172 13.8265C13.1172 16.2219 15.0656 18.1703 17.4609 18.1703C19.8562 18.1703 21.8047 16.2219 21.8047 13.8265C21.8047 11.4312 19.8562 9.48279 17.4609 9.48279Z" fill="#CAB57B"/>
</g>
<defs>
<clipPath id="clip0_315_1290">
<rect width="80" height="80" fill="white"/>
</clipPath>
</defs>
</svg>
